<?xml version="1.0" encoding="UTF-8"?>
<svg xmlns="http://www.w3.org/2000/svg" xmlns:xlink="http://www.w3.org/1999/xlink" viewBox="0 0 1080 1080">
  <defs>
    <style>
      .cls-1 {
        stroke: #cf8470;
        stroke-linecap: round;
        stroke-width: 1.48px;
      }

      .cls-1, .cls-2, .cls-3 {
        fill: none;
        stroke-miterlimit: 10;
      }

      .cls-4 {
        fill: #fcfcfc;
      }

      .cls-2 {
        stroke: #f6604b;
        stroke-width: 7.59px;
      }

      .cls-5 {
        opacity: .08;
      }

      .cls-5, .cls-6 {
        mix-blend-mode: multiply;
      }

      .cls-7 {
        isolation: isolate;
      }

      .cls-3 {
        stroke: url(#linear-gradient);
        stroke-width: 5.14px;
      }

      .cls-8 {
        opacity: .66;
      }

      .cls-9 {
        fill: #f6604b;
      }

      .cls-10 {
        fill: #ffcca2;
      }

      .cls-6 {
        opacity: .3;
      }
    </style>
    <linearGradient id="linear-gradient" x1="352.48" y1="718.86" x2="738.57" y2="332.78" gradientUnits="userSpaceOnUse">
      <stop offset=".11" stop-color="#763ca8"/>
      <stop offset=".99" stop-color="#f6604b"/>
    </linearGradient>
  </defs>
  <g class="cls-7">
    <g id="Layer_1" data-name="Layer 1">
      <g>
        <rect class="cls-3" x="424.55" y="265.85" width="241.95" height="519.94"/>
        <g>
          <g>
            <line class="cls-2" x1="598.95" y1="162.72" x2="638.83" y2="122.84"/>
            <polygon class="cls-9" points="644.89 133.92 651.16 110.51 627.75 116.78 644.89 133.92"/>
          </g>
          <g>
            <line class="cls-2" x1="561.6" y1="145.34" x2="580.28" y2="92.14"/>
            <polygon class="cls-9" points="590.54 99.5 586.06 75.68 567.67 91.47 590.54 99.5"/>
          </g>
          <g>
            <line class="cls-2" x1="488.25" y1="162.72" x2="448.38" y2="122.84"/>
            <polygon class="cls-9" points="459.45 116.78 436.05 110.51 442.32 133.92 459.45 116.78"/>
          </g>
          <g>
            <line class="cls-2" x1="525.61" y1="145.34" x2="506.93" y2="92.14"/>
            <polygon class="cls-9" points="519.53 91.47 501.15 75.68 496.67 99.5 519.53 91.47"/>
          </g>
        </g>
        <g>
          <polygon class="cls-10" points="536.33 550.24 536.08 550.17 536 544.5 536.33 550.24"/>
          <path class="cls-5" d="M559.48,290.32v11.1c-11.73,8.8-21.03,5.82-30.2-.69v-10.4h30.2Z"/>
          <path class="cls-10" d="M587.28,232.72c.13,10.11-1.51,34.3-18.36,52.88-21.84,24.1-35.83,11.6-51.77-1.95-13.59-11.57-16.48-37.6-17.69-52.45-.2-2.59-.37-4.81-.52-6.59-1.04-11.99-7.97-66.6,44.79-63.63,52.78,2.99,43.32,66.96,43.32,66.96,0,0,.08.74.15,2.1.03.72.07,1.61.08,2.67Z"/>
          <path class="cls-10" d="M587.67,218.78c-.09,5.55-.63,9.16-.63,9.16,0,0,.08.74.16,2.11.03.73.06,1.61.08,2.66.02,1.45,0,3.2-.09,5.19-.57,11.79-3.85,31.79-18.27,47.7-21.85,24.1-35.83,11.6-51.77-1.94-9.95-8.46-14.16-24.67-16.19-38.57-.74-5.11-1.2-9.9-1.51-13.89-.19-2.59-.36-4.81-.52-6.59-.13-1.47-.35-3.56-.52-6.12-1.32-18.35-.99-60.12,45.32-57.5,40.24,2.29,44.31,40.01,43.95,57.79Z"/>
          <polygon class="cls-10" points="467.56 643.9 468.96 674.6 482.74 692.62 491.51 690.13 486.99 664.8 493.26 667.47 493.95 664.7 482.68 643.51 467.56 643.9"/>
          <polygon class="cls-10" points="610.42 643.9 609.03 674.6 595.24 692.62 586.48 690.13 590.99 664.8 584.72 667.47 584.03 664.7 595.3 643.51 610.42 643.9"/>
          <path class="cls-6" d="M588.83,380.85c4.43,1.28,8.62,2.45,12.63,4.63-3.04-3.26-8.04-4.72-12.63-4.63Z"/>
          <path class="cls-6" d="M485.8,381.38c4.01-2.19,8.2-3.35,12.63-4.63-4.59-.08-9.59,1.37-12.63,4.63Z"/>
          <path class="cls-10" d="M587.75,252.13c2.01-7.08,1.45-24.06,1.45-24.06,0,0,7.25-5.13,5.73,15.04-1.14,15.06-7.97,11.79-7.18,9.02Z"/>
          <path class="cls-10" d="M632.96,1004.32h-70.96c-1.31,0-2.35-1.32-2.29-2.93l1.23-31.84-24.61-419.31-.33-5.74.08,5.67,6.15,419.47,2.98,31.62c.14,1.64-.9,3.06-2.22,3.06h-75.43l.95-9.88,48.11-25.36-5.86-185.45-21.45-243.13,12.7-74.51-4.41-27.66-2.29-13.29-4.1-48.46-.71,47.1-7.25,57.8c-.47,2.24-.65,4.56-.5,6.86l1.42,22.67c.05.61.06,1.23.05,1.84l-1.69,131.84-14.96.39-9.43-159.66c-.08-1.5-.02-3.01.17-4.51l9.96-101.02,2.25-41.27,58.76-24.57v-23.72h30.2v24.23l53.89,24.81.43,39.88,8.13,105.6-11.55,159.95-15.04-.71-1.34-121.55,5.36-35.45-6.05-96.36-10.2,74.31.14,46.41-1.36,2.55,1.39,7.88.91,23.16-.32,15.05-3.94,219.78,2.51,188.63,50.02,25.93.49,9.9Z"/>
          <path class="cls-10" d="M499.78,252c-2.01-7.08-2.79-23.97-2.79-23.97,0,0-7.25-5.13-5.73,15.04,1.14,15.06,9.31,11.7,8.52,8.93Z"/>
          <g class="cls-6">
            <path d="M531.42,320.55c1.57,4.93,3,9.93,4.41,14.88,1.33,5.38,6.12,13.42,11.8,7.41,2.54-2.83,3.53-6.59,4.93-10.13,1.8-4.85,3.69-9.67,5.68-14.46-1.41,4.99-2.92,9.94-4.52,14.86-1.24,3.67-2.25,7.75-4.96,10.77-3.36,3.89-8.11,3.26-11-.78-1.63-2.25-2.47-4.82-3.11-7.35-1.22-5.06-2.24-10.11-3.22-15.21h0Z"/>
          </g>
          <polygon class="cls-10" points="536.33 550.24 536.08 550.17 536 544.5 536.33 550.24"/>
          <g>
            <path class="cls-4" d="M515.76,238.52h0c-.27.09-.53.18-.78.28-.83.35-1.55.76-2.21,1.25-.55.43-.99.87-1.35,1.32-.31.41-.57.86-.79,1.37-.07.16-.16.43-.24.7.24.43.5.82.79,1.2.58.73,1.26,1.43,2.05,2.06.82.63,1.75,1.17,2.79,1.63,1.18.49,2.46.84,3.81,1.04.71.08,1.43.13,2.15.13s1.46-.05,2.22-.14l.17-.04c1.5-.21,3.08-.65,4.7-1.33.7-.32,1.31-.67,1.86-1.07.37-.3.71-.63,1.02-.99.15-.21.3-.43.42-.64l-.11-.26c-.13-.35-.26-.7-.4-1.03-.31-.72-.73-1.46-1.22-2.13-.25-.32-.52-.62-.81-.9l-.05.22c-.05.31-.08.58-.17.82-.09.25-.18.51-.3.74-.5.95-1.26,1.78-2.46,2.68-.44.33-.91.68-1.45.9-.44.19-.9.38-1.41.47-.51.1-.93.14-1.3.14h-.13c-.49-.02-.96-.08-1.39-.17-1.8-.42-3.39-1.56-4.37-3.12-.54-.85-.89-1.75-1.02-2.62-.09-.55-.12-.98-.1-1.39.01-.38.06-.73.12-1.09l-.03-.03h0Z"/>
            <g>
              <path class="cls-8" d="M519.33,236.53c-1.12.15-2.2.47-3.2.94-.23.11-.29.38-.24.58-.02.03-.04.08-.05.13-.03.11-.05.23-.07.34l.02.02c-.06.36-.11.71-.12,1.09-.02.42,0,.85.1,1.39.13.86.48,1.76,1.02,2.62.98,1.56,2.58,2.69,4.37,3.12.43.1.89.15,1.39.16h.13c.38,0,.79-.04,1.31-.14.5-.09.97-.28,1.41-.46.54-.23,1.01-.57,1.45-.9,1.2-.9,1.96-1.73,2.46-2.68.12-.24.22-.49.3-.74.08-.24.12-.5.16-.82l.03-.11s0-.01,0-.02c.03-.35-.03-.71-.11-1.01-.03-.12-.08-.24-.13-.35-.08-.19-.17-.38-.27-.57-.12-.22-.34-.38-.6-.43-.63-.55-1.4-1.01-2.28-1.37-.54-.22-1.07-.39-1.61-.52-.67-.16-1.35-.26-1.88-.32-.51-.06-1.04-.09-1.59-.09-.66,0-1.33.05-2,.14h0Z"/>
              <path class="cls-4" d="M525.88,242.82c-.26.14-.45.37-.54.65-.1.3-.04.59.08.87.26.57.7,1.01,1.11,1.46.11.12.24.2.38.26.02.03.04.05.06.08.23.29.71.33,1.02.16.17-.09.31-.25.38-.44.16-.18.25-.42.26-.66,0-.21-.05-.38-.14-.54,0,0,0,0,0,0-.37-.58-.79-1.14-1.27-1.62-.23-.23-.52-.35-.83-.35-.18,0-.36.04-.53.13h0Z"/>
            </g>
            <path class="cls-6" d="M534.37,244.44c-.33-1.42-.89-2.83-1.75-4.02-.42-.58-.88-1.1-1.41-1.57-.6-.55-1.28-1.03-1.97-1.46-.9-.57-1.94-.96-2.97-1.23-1.13-.3-2.31-.45-3.48-.51-.24-.01-.49-.02-.73-.02-.97,0-1.93.1-2.9.24-1.15.18-2.27.49-3.35.92-1.06.43-2.06.97-2.97,1.66-.43.32-.82.66-1.18,1.04-.39.4-.72.85-1.03,1.31-.5.75-.87,1.61-1.12,2.48-.05.16.01.33.13.45,0,.02,0,.04,0,.05.57.98,1.25,1.89,2.03,2.71.79.83,1.73,1.53,2.7,2.14.98.6,2.05,1.06,3.15,1.42,1.12.37,2.29.58,3.46.7,2.34.24,4.73-.04,6.99-.65,1.23-.33,2.44-.8,3.52-1.47,1.1-.69,2.02-1.65,2.66-2.78.09-.16.11-.34.1-.52.15-.25.2-.56.13-.86ZM530.91,246.91c-.55.4-1.16.75-1.86,1.07-1.62.68-3.2,1.13-4.7,1.33l-.17.04c-.76.09-1.51.14-2.22.14s-1.44-.04-2.15-.13c-1.35-.2-2.63-.55-3.81-1.04-1.03-.45-1.97-1-2.79-1.62-.78-.63-1.47-1.32-2.04-2.05-.28-.39-.54-.78-.78-1.2.08-.28.17-.55.24-.7.22-.51.48-.96.79-1.37.36-.45.8-.88,1.34-1.31.66-.49,1.38-.9,2.21-1.25.26-.1.52-.19.78-.29h0l.02.02c.87-.28,1.77-.47,2.68-.6,1.49-.18,3.01-.17,4.51,0,1.26.18,2.5.49,3.68.96.86.38,1.67.85,2.42,1.42.26.21.51.43.74.67v-.03c.29.28.56.58.81.89.49.67.91,1.41,1.22,2.13.14.34.27.69.4,1.03l.11.26c-.13.22-.27.43-.42.65-.3.36-.65.69-1.02.99Z"/>
          </g>
          <path class="cls-6" d="M560.36,223.54c.38-.04.79-.06,1.33-.06,1.38-.01,2.7.12,3.69.24,1.04.13,2.07.28,3.1.44,1.02.16,1.94.32,2.82.5,2.08.41,3.84.92,5.39,1.55,1.69.69,3.08,1.57,4.12,2.61.12.13.07.31-.11.41-.06.03-.13.05-.2.06-.12.01-.23-.01-.31-.06-2.22-.61-4.22-1.08-6.11-1.45-1.73-.33-3.12-.54-4.45-.69-1.55-.18-3.13-.26-4.69-.26-.96,0-1.74.04-2.48.11h-.14c-.61.08-1.23.18-1.83.28-.39.06-.78.13-1.17.18,0,0-.01,0-.01,0-.14.01-.24,0-.33-.02-.07.08-.19.15-.32.19-.06.02-.12.03-.18.04-.11.01-.24,0-.37-.03-.98-.23-1.58-.81-1.91-1.25-.36-.47-.6-1.05-.72-1.75-.01-.06.02-.13.08-.19.07-.06.17-.1.27-.11.2-.02.38.08.4.23.02.1.04.2.06.3.08.23.18.44.32.64.11.14.24.28.39.4l-.06-.08c-.17-.44-.23-.93-.17-1.46.01-.12.18-.2.33-.21.17,0,.25.04.31.09.06.06.06.12.06.18v.14c0,.1.01.25.05.4.06.15.13.28.22.43.05.06.09.11.13.15-.07-.28-.09-.58-.11-.87,0-.08.02-.16.07-.23.04-.14.14-.26.29-.32.24-.11.47-.2.71-.27.32-.09.66-.14.99-.19.2-.03.37-.05.55-.07h0Z"/>
          <path class="cls-6" d="M527.61,223.54c-.38-.04-.79-.06-1.33-.06-1.38-.01-2.7.12-3.69.24-1.04.13-2.07.28-3.1.44-1.02.16-1.94.32-2.82.5-2.08.41-3.84.92-5.39,1.55-1.69.69-3.08,1.57-4.12,2.61-.12.13-.07.31.11.41.06.03.13.05.2.06.12.01.23-.01.31-.06,2.22-.61,4.22-1.08,6.11-1.45,1.73-.33,3.12-.54,4.45-.69,1.55-.18,3.13-.26,4.69-.26.96,0,1.74.04,2.48.11h.14c.61.08,1.23.18,1.83.28.39.06.78.13,1.17.18,0,0,.01,0,.01,0,.14.01.24,0,.33-.02.07.08.19.15.32.19.06.02.12.03.18.04.11.01.24,0,.37-.03.98-.23,1.58-.81,1.91-1.25.36-.47.6-1.05.72-1.75.01-.06-.02-.13-.08-.19-.07-.06-.17-.1-.27-.11-.2-.02-.38.08-.4.23-.02.1-.04.2-.06.3-.08.23-.18.44-.32.64-.11.14-.24.28-.39.4l.06-.08c.17-.44.23-.93.17-1.46-.01-.12-.18-.2-.33-.21-.17,0-.25.04-.31.09-.06.06-.06.12-.06.18v.14c0,.1-.01.25-.05.4-.06.15-.13.28-.22.43-.05.06-.09.11-.13.15.07-.28.09-.58.11-.87,0-.08-.02-.16-.07-.23-.04-.14-.14-.26-.29-.32-.24-.11-.47-.2-.71-.27-.32-.09-.66-.14-.99-.19-.2-.03-.37-.05-.55-.07h0Z"/>
          <g>
            <path class="cls-4" d="M573.53,237.93h0c.27.09.53.18.78.28.83.35,1.55.76,2.21,1.25.55.43.99.87,1.35,1.32.31.41.57.86.79,1.37.07.16.16.43.24.7-.24.43-.5.82-.79,1.2-.58.73-1.26,1.43-2.05,2.06-.82.63-1.75,1.17-2.79,1.63-1.18.49-2.46.84-3.81,1.04-.71.08-1.43.13-2.15.13s-1.46-.05-2.22-.14l-.17-.04c-1.5-.21-3.08-.65-4.7-1.33-.7-.32-1.31-.67-1.86-1.07-.37-.3-.71-.63-1.02-.99-.15-.21-.3-.43-.42-.64l.11-.26c.13-.35.26-.7.4-1.03.31-.72.73-1.46,1.22-2.13.25-.32.52-.62.81-.9l.05.22c.05.31.08.58.17.82.09.25.18.51.3.74.5.95,1.26,1.78,2.46,2.68.44.33.91.68,1.45.9.44.19.9.38,1.41.47.51.1.93.14,1.3.14h.13c.49-.02.96-.08,1.39-.17,1.8-.42,3.39-1.56,4.37-3.12.54-.85.89-1.75,1.02-2.62.09-.55.12-.98.1-1.39-.01-.38-.06-.73-.12-1.09l.03-.03h0Z"/>
            <g>
              <path class="cls-8" d="M569.96,235.94c1.12.15,2.2.47,3.2.94.23.11.29.38.24.58.02.03.04.08.05.13.03.11.05.23.07.34l-.02.02c.06.36.11.71.12,1.09.02.42,0,.85-.1,1.39-.13.86-.48,1.76-1.02,2.62-.98,1.56-2.58,2.69-4.37,3.12-.43.1-.89.15-1.39.16h-.13c-.38,0-.79-.04-1.31-.14-.5-.09-.97-.28-1.41-.46-.54-.23-1.01-.57-1.45-.9-1.2-.9-1.96-1.73-2.46-2.68-.12-.24-.22-.49-.3-.74-.08-.24-.12-.5-.16-.82l-.03-.11s0-.01,0-.02c-.03-.35.03-.71.11-1.01.03-.12.08-.24.13-.35.08-.19.17-.38.27-.57.12-.22.34-.38.6-.43.63-.55,1.4-1.01,2.28-1.37.54-.22,1.07-.39,1.61-.52.67-.16,1.35-.26,1.88-.32.51-.06,1.04-.09,1.59-.09.66,0,1.33.05,2,.14h0Z"/>
              <path class="cls-4" d="M571.05,241.3c-.26.13-.46.36-.56.64-.11.3-.06.59.05.87.24.58.66,1.03,1.06,1.49.1.12.23.21.37.27.02.03.04.05.06.08.22.3.7.35,1.01.2.17-.09.32-.24.4-.42.16-.18.26-.41.28-.65.01-.21-.03-.38-.12-.55,0,0,0,0,0,0-.35-.59-.75-1.16-1.22-1.66-.22-.23-.51-.37-.82-.38-.18,0-.36.03-.53.12h0Z"/>
            </g>
            <path class="cls-6" d="M555.05,244.71c-.01.18.01.36.1.52.64,1.13,1.56,2.09,2.66,2.78,1.08.67,2.29,1.14,3.52,1.47,2.27.61,4.65.89,6.99.65,1.17-.12,2.33-.33,3.46-.7,1.09-.35,2.17-.81,3.15-1.42.98-.6,1.91-1.31,2.7-2.14.78-.82,1.46-1.73,2.03-2.71,0-.02,0-.03,0-.05.12-.11.17-.28.13-.45-.25-.87-.62-1.72-1.12-2.48-.31-.46-.64-.91-1.03-1.31-.36-.38-.76-.73-1.18-1.04-.91-.69-1.91-1.23-2.97-1.66-1.08-.43-2.2-.74-3.35-.92-.96-.15-1.93-.24-2.9-.24-.24,0-.49,0-.73.02-1.17.06-2.35.2-3.48.51-1.03.28-2.07.66-2.97,1.23-.69.44-1.37.91-1.97,1.46-.53.47-.99,1-1.41,1.57-.86,1.19-1.42,2.6-1.75,4.02-.07.3-.02.61.13.86ZM557.37,245.34c-.15-.22-.29-.43-.42-.65l.11-.26c.13-.35.26-.7.4-1.03.31-.72.73-1.46,1.22-2.13.25-.32.52-.61.81-.89v.03c.24-.23.49-.46.75-.67.75-.57,1.56-1.03,2.42-1.42,1.18-.47,2.43-.78,3.68-.96,1.49-.17,3.01-.18,4.51,0,.91.13,1.81.32,2.68.6l.02-.02h0c.27.09.53.18.78.29.83.35,1.55.76,2.21,1.25.55.44.99.87,1.34,1.31.31.41.57.86.79,1.37.07.15.16.43.24.7-.24.43-.5.82-.78,1.2-.58.73-1.26,1.42-2.04,2.05-.82.63-1.75,1.17-2.79,1.62-1.18.49-2.46.84-3.81,1.04-.71.08-1.43.13-2.15.13s-1.46-.05-2.22-.14l-.17-.04c-1.5-.21-3.07-.65-4.7-1.33-.71-.31-1.31-.67-1.86-1.07-.37-.29-.71-.63-1.02-.99Z"/>
          </g>
          <path class="cls-6" d="M551.46,264.78c-.13-.13-.31-.2-.5-.2-.09,0-.18.02-.26.05-.14-.03-.27,0-.41.06-.04.02-.08.03-.12.05-1.1.43-2.25.7-3.42.87-1.51.19-3.03.21-4.54.03-.16-.02-.32-.05-.48-.07-.06-.02-.12-.04-.19-.07-.06-.03-.12-.05-.19-.08-.14-.07-.29-.1-.45-.06-.02,0-.05.01-.07.02-.56-.14-1.11-.31-1.65-.53-.16-.07-.32-.14-.48-.22-.06-.03-.13-.05-.2-.05-.13,0-.25.06-.33.18-.09.15-.04.37.1.48,0,.11.02.23.11.32.81.83,1.76,1.49,2.82,1.95,1.12.5,2.33.75,3.55.81.62.03,1.24-.03,1.85-.11.61-.09,1.21-.25,1.79-.46,1.15-.43,2.21-1.11,3.04-2.02.26-.28.28-.7,0-.98ZM540.58,266.2c-.07-.04-.14-.08-.21-.12.05.01.1.04.15.05.01.03.04.04.06.07Z"/>
          <path class="cls-6" d="M539.67,284.41s5.22.57,6.22-.1"/>
          <line class="cls-1" x1="532.68" y1="280.21" x2="557.15" y2="280.21"/>
          <g class="cls-6">
            <path d="M558.24,332.01c6.82-.73,13.7-.74,20.54-.32,6.83.49,13.75,1.31,20.21,3.67-13.49-2.2-27.14-2.32-40.75-3.35h0Z"/>
          </g>
          <g class="cls-6">
            <path d="M529.76,332.01c-13.61,1.03-27.26,1.14-40.75,3.35,6.46-2.36,13.39-3.18,20.21-3.67,6.85-.41,13.72-.41,20.54.32h0Z"/>
          </g>
          <path class="cls-6" d="M532.93,412.14c-8.76,2.77-17.03,5.31-24.97,10.05,6.01-7.07,15.89-10.23,24.97-10.05Z"/>
          <path class="cls-6" d="M496.63,363.69c3.8-3.18,6.43-7.2,7.8-11.96-3.8,3.18-6.42,7.2-7.8,11.96Z"/>
          <path class="cls-6" d="M502,416.73c-4.69-10.53-7.2-26.81-10.74-37.76.66,11.38,3.5,28.7,10.74,37.76Z"/>
          <path class="cls-6" d="M580.25,352.46c1.45,4.34,4.08,7.88,7.85,10.5-1.44-4.35-4.09-7.88-7.85-10.5Z"/>
          <path class="cls-6" d="M543.68,365.69c-1.44,7.46-1.45,14.96,0,22.41,1.45-7.46,1.44-14.96,0-22.41Z"/>
          <path class="cls-6" d="M546.76,412.14c8.76,2.77,17.03,5.31,24.97,10.05-6.01-7.07-15.89-10.23-24.97-10.05Z"/>
          <path class="cls-6" d="M594.9,383.17c-3.78,10.15-9.75,30.07-14.65,39.74,7.48-7.8,13.96-29.04,14.65-39.74Z"/>
          <path class="cls-6" d="M521.76,461.88c8.4-11.47,28.15-11.47,36.53,0-6.97-13.28-29.58-13.29-36.53,0Z"/>
          <path class="cls-6" d="M541.14,479.16c-.09-5.03-.41-10.07-1-15.09-.58,4.98-.9,9.96-1,14.95-1.08.43-1.84,1.64-1.84,3.13s.77,2.7,1.85,3.13c.11,4.82.43,9.63.99,14.44.57-4.86.89-9.72.99-14.59.91-.52,1.53-1.64,1.53-2.98s-.62-2.45-1.52-2.98Z"/>
          <path class="cls-10" d="M544.07,547.82c2.17-5.38,4.57-10.64,7.08-15.87,9.97-7.03,20.24-13.63,30.68-19.95l-.61,1.17c.02-3.59.04-7.18.15-10.77.1-3.59.23-7.19.52-10.78.51,3.57.86,7.15,1.19,10.73.35,3.82.61,7.64.87,11.46l-.66.44c-9.98,6.81-20.15,13.35-30.58,19.45l.4-.43c-2.88,4.93-5.84,9.8-9.02,14.55h0Z"/>
          <g class="cls-6">
            <path d="M544.76,547.82c2.36-5.09,4.97-10.34,7.5-15.36,9.78-6.87,20.48-13.47,30.63-19.9,0,0-.31.58-.31.58-.09-6.32-.14-15.3,0-21.54.57,6.18.98,15.21,1.34,21.49,0,0,.02.37.02.37,0,0-.33.21-.33.21-9.61,6.26-21.36,14.12-30.35,19.3-2.73,4.91-5.62,10.01-8.5,14.83h0Z"/>
          </g>
          <path class="cls-6" d="M555.39,789.67c3.32,3.94,7.11,7.27,11.01,10.51,3.84-5.63,7.39-11.43,9.95-17.79-4.08,4.26-7.43,9.02-10.56,13.97-3.29-2.45-6.68-4.77-10.39-6.69Z"/>
          <path class="cls-6" d="M516.91,788.8c2.18,3.8,5.04,7.02,8.04,10.15,2.2-1.22,4.37-2.52,6.43-3.97,1.78-1.25,3.52-2.59,5.11-4.17-3.95,1.07-7.55,2.84-11.07,4.82-2.62-2.54-5.35-4.93-8.51-6.83Z"/>
          <g class="cls-6">
            <path d="M599.37,487.08c.98,1.38,1.83,2.82,2.64,4.28l-1.03-.09c2.72-4.54,5.75-8.91,9.45-12.72-2.22,4.82-5.21,9.22-8.47,13.39,0,0-.68.85-.68.85-.72-1.87-1.42-3.75-1.91-5.71h0Z"/>
          </g>
          <g class="cls-6">
            <path d="M482.86,487.08c-.49,1.96-1.19,3.84-1.91,5.71-3.53-4.41-6.77-9.1-9.15-14.24,2.8,2.84,5.15,6.05,7.35,9.36.73,1.1,1.43,2.22,2.1,3.36l-1.03.09c.81-1.46,1.65-2.9,2.64-4.28h0Z"/>
          </g>
          <g class="cls-6">
            <path d="M536.26,550.19c-4.31-3.23-8.5-6.61-12.62-10.07-.5-8.37-3.66-16.67-8.8-23.3-1.67-2.26-3.69-4.24-5.73-6.17,2.31,1.61,4.59,3.38,6.47,5.55,5.81,6.4,9.18,14.93,9.43,23.58,0,0-.24-.52-.24-.52,3.92,3.55,7.77,7.17,11.49,10.94h0Z"/>
          </g>
          <path class="cls-6" d="M587.67,218.78c-.09,5.55-.63,9.16-.63,9.16,0,0,.08.74.16,2.11.03.73.06,1.61.08,2.66.02,1.45,0,3.2-.09,5.19l-1.97,3.12-1.17-30.25-13.07-28.98c-1.65-3.24-5.28-4.96-8.83-4.19l-20.96,4.52c-.78.17-1.57.22-2.36.15l-20.66-1.73c-3.52-.3-6.83,1.75-8.13,5.04l-9.08,26.36,2.06,30.99-2.06,2.16c-.74-5.11-1.2-9.9-1.51-13.89-.19-2.59-.36-4.81-.52-6.59-.13-1.47-.35-3.56-.52-6.12-1.32-18.35-.99-60.12,45.32-57.5,40.24,2.29,44.31,40.01,43.95,57.79Z"/>
          <g class="cls-6">
            <path d="M514.58,434.49c-4.99-.51-9.98-1.64-14.46-3.99-1.58-.89-3.09-1.78-4.16-3.35-1.03-3.68-1.48-7.48-1.7-11.28-.07-1.24-.08-2.49-.05-3.74l1.46,7.28c.41,2.14,1.3,5.56,1.63,6.99,2.04,2.34,5.13,3.6,7.95,4.82,2.63,1.11,6.58,2.34,9.33,3.26h0Z"/>
          </g>
          <g class="cls-6">
            <path d="M497.29,437.96c4.15,3.18,9.47,4.03,14.2,6.1-4.74-.2-11.58-1.79-14.2-6.1h0Z"/>
          </g>
          <g class="cls-6">
            <path d="M588.22,428.39c-2.62,4.31-9.46,5.89-14.2,6.1,4.73-2.06,10.05-2.91,14.2-6.1h0Z"/>
          </g>
        </g>
      </g>
    </g>
  </g>
</svg>