<?xml version="1.0" encoding="UTF-8"?>
<svg xmlns="http://www.w3.org/2000/svg" xmlns:xlink="http://www.w3.org/1999/xlink" viewBox="0 0 1080 1080">
  <defs>
    <style>
      .cls-1 {
        fill: #fcfcfc;
      }

      .cls-2, .cls-3 {
        opacity: .3;
      }

      .cls-4 {
        opacity: .08;
      }

      .cls-4, .cls-3, .cls-5 {
        mix-blend-mode: multiply;
      }

      .cls-6 {
        isolation: isolate;
      }

      .cls-7 {
        opacity: .66;
      }

      .cls-8 {
        fill: #cf8470;
      }

      .cls-9 {
        stroke: url(#linear-gradient);
        stroke-width: 5.46px;
      }

      .cls-9, .cls-10, .cls-11 {
        fill: none;
        stroke-miterlimit: 10;
      }

      .cls-12 {
        fill: #f6604b;
      }

      .cls-13 {
        fill: #ffcca2;
      }

      .cls-10 {
        stroke-width: 8.07px;
      }

      .cls-10, .cls-11 {
        stroke: #f6604b;
      }

      .cls-11 {
        stroke-width: 8.22px;
      }

      .cls-5 {
        opacity: .5;
      }
    </style>
    <linearGradient id="linear-gradient" x1="324.22" y1="549.49" x2="755.78" y2="549.49" gradientUnits="userSpaceOnUse">
      <stop offset=".11" stop-color="#763ca8"/>
      <stop offset=".99" stop-color="#f6604b"/>
    </linearGradient>
  </defs>
  <g class="cls-6">
    <g id="Layer_1" data-name="Layer 1">
      <g>
        <g>
          <polygon class="cls-13" points="482.6 950.89 479.31 967.2 413.43 993.01 413.36 1004.32 532.71 1004.32 529.91 950.89 482.6 950.89"/>
          <polygon class="cls-13" points="666.57 993.01 600.69 967.2 597.43 950.89 550.27 950.89 547.27 1004.32 666.64 1004.32 666.57 993.01"/>
        </g>
        <g>
          <path class="cls-13" d="M679.14,548.98l-6.85,95.41-32.2,3.69-7.94-89.08-2.7-97.53-3.55,79.85,7.04,100.36-9.25,155.75-26.3,153.57h-47.15l-7.49-64.66-2.76-186.57-2.35,186.86-7.71,64.37h-47.32l-27-162.07-8.79-150.17,7.25-97.44-3.53-79.85-2.7,97.53-7.97,89.47.03.13-32.2-4.2-6.85-95.41,3.9-17.15-1.39-78.16,1.82-39.01,20.49-18.61,76.94-25.68c3.45-.97,6-3.87,6.52-7.4l1.56-10.65,2.29-15.56h50.55l2.24,15.21,1.56,10.6c.55,3.74,3.35,6.75,7.05,7.54l81.71,21.98,18.01,19.46,2.09,43.31-.9,80.96,3.83,13.15Z"/>
          <rect class="cls-9" x="326.96" y="336.45" width="426.09" height="426.09"/>
          <polygon class="cls-4" points="565.79 351.97 550.6 361.59 525.35 361.59 510.69 352.33 512.99 336.76 563.54 336.76 565.79 351.97"/>
          <path class="cls-13" d="M582.52,254.76c4,3.39,5.9,8.64,5.01,13.81l-3.38,19.57-.1.54c-1.01,3.22-1.32,6.57-1.76,10.08-.18,1.66-.42,3.37-.74,5.11l-3.02,34.94-32.35,16.05h-18.54l-32.35-16.05-3-34.66c-.03.05-.08.08-.12.13-.42-2.06-.67-4.07-.89-6.01l-.03-.23c-.25-2.21-.5-4.34-.92-6.42l-.8-5.65-2.63-18.43c-.71-4.96,1.14-9.94,4.91-13.24l21.58-18.87c2.66-2.33,6.08-3.63,9.62-3.66l26.59-.24c3.56-.03,7.01,1.22,9.72,3.52l23.2,19.7Z"/>
          <polygon class="cls-13" points="441.58 710.57 436.47 673.92 443.53 678.74 445.41 674.86 440.01 649.14 439.83 649.11 407.74 644.92 409.66 680.47 429.89 715.07 441.58 710.57"/>
          <polygon class="cls-13" points="640.11 648.58 634.59 674.86 636.47 678.74 643.53 673.92 638.42 710.57 650.11 715.07 670.34 680.47 672.26 644.92 640.11 648.58"/>
          <path class="cls-13" d="M536.91,241c-2.75.08-5.33.27-7.74.54,2.51-.35,5.09-.54,7.74-.54Z"/>
          <path class="cls-13" d="M490.34,291.62c-.22-1.09-.49-2.18-.82-3.25,0-.8,0-1.59.02-2.4l.8,5.65Z"/>
          <path class="cls-13" d="M584.15,288.14v.23l-.1.3.1-.54Z"/>
          <g>
            <path class="cls-3" d="M519.51,291.09h-.34c-1.85,0-3.53.04-5.13.11-2.82.13-7.03.47-10.93,2.01-.19.08-.28.24-.23.42.04.13.17.24.31.25,1.24.05,2.44.12,3.64.19l.72.05c.97.06,1.93.12,2.9.2,2.61.22,4.8.41,7.04.7h0c.64.09,1.26.21,1.89.35.6.14,1.2.3,1.8.46l.57.15c.46.12.91.24,1.37.35.35.08.7.14,1.05.18.14.02.28.03.42.03.02,0,.04,0,.05,0,.22,0,.35-.02.49-.05.13,0,.18.01.23.01.82-.19,1.49-.52,2.02-.96.31-.26.57-.52.77-.8.13-.18.24-.36.34-.56.09-.18.16-.38.22-.56.03-.12.02-.25-.04-.36-.07-.12-.17-.2-.3-.24-.04-.01-.08-.02-.13-.02-.09,0-.17.02-.25.07-.1.06-.17.15-.22.29l-.08.21c-.16.34-.34.66-.56.96-.21.26-.44.49-.69.69-.14.1-.25.17-.36.24.28-.29.51-.62.72-.97.19-.32.32-.65.42-.94.12-.35.17-.71.2-.99.02-.18-.14-.35-.3-.4-.02,0-.04,0-.05,0-.25,0-.4.12-.45.29-.12.39-.24.78-.4,1.15-.02.05-.05.1-.07.15.02-.06.02-.14.01-.21l-.02-.41-.02-.41c0-.11-.04-.23-.11-.32,0-.28-.16-.53-.38-.64-.19-.09-.37-.17-.57-.23-.24-.07-.49-.11-.74-.15-.64-.1-1.21-.15-1.77-.19-1.05-.08-2.12-.09-3.05-.09h0Z"/>
            <g>
              <path class="cls-1" d="M510.97,297.66h0l-.3.03c-.81.11-1.53.29-2.2.56-.4.18-.72.36-1,.56-.26.21-.48.43-.67.65-.21.28-.37.56-.5.87-.11.3-.2.61-.26.96l-.02.19c.05.3.12.57.22.87.14.35.33.67.56,1,.26.32.56.62.92.92.63.47,1.28.84,2.06,1.18.74.31,1.56.57,2.44.77.87.2,1.74.33,2.41.42l-.15-.04c1.37.2,2.57.28,3.67.28.85,0,1.62-.05,2.38-.15h-.16c1.05-.13,1.93-.37,2.7-.69.45-.2.87-.44,1.26-.72.4-.33.69-.61.93-.9.08-.12.15-.24.22-.36l.07-.12.11-.18c.01-.09.01-.14.01-.19l-.02-.41c0-.25-.02-.5-.03-.74-.07-.38-.15-.68-.26-.96-.14-.3-.29-.56-.45-.78-.22-.28-.47-.53-.75-.76-.36-.26-.76-.49-1.2-.7,0,.18,0,.32,0,.44-.02.25-.04.51-.1.75-.06.25-.15.48-.26.72-.35.78-.95,1.51-1.79,2.17-.39.3-.82.6-1.31.81-.42.18-.82.35-1.23.44-.5.11-1,.17-1.5.17-.4,0-.78-.04-1.15-.11-1.59-.3-3.03-1.29-3.85-2.62-.42-.68-.69-1.42-.81-2.19-.1-.66-.08-1.37.06-2.1l-.02-.03h0Z"/>
              <g>
                <path class="cls-7" d="M511.65,297h-.18c-.2,0-.38.14-.42.32-.03.12-.05.23-.07.34,0,0,.02.02.02.02-.14.73-.16,1.44-.06,2.11.12.77.39,1.5.81,2.19.83,1.34,2.26,2.32,3.85,2.62.37.08.75.11,1.15.11.5,0,1.01-.06,1.5-.17.41-.1.82-.27,1.23-.44.49-.21.92-.51,1.31-.81.85-.66,1.45-1.39,1.8-2.17.1-.24.19-.47.26-.72.06-.24.08-.49.09-.74,0-.11,0-.22,0-.37-.02-.13-.05-.25-.08-.35-.07-.26-.19-.52-.36-.73-.06-.11-.15-.2-.27-.27-.12-.06-.25-.1-.38-.1-.05,0-.1,0-.15.01-.08-.06-.18-.12-.3-.16-.75-.26-1.53-.38-2.26-.48-.88-.11-1.7-.19-2.5-.24-.8-.04-1.6-.06-2.4-.06-.95,0-1.8.03-2.6.09h0Z"/>
                <path class="cls-1" d="M512.73,300.19c-.15,0-.3.05-.44.13-.56.35-1.1.76-1.59,1.21-.3.28-.34.76-.14,1.1.22.37.69.55,1.09.4.11-.02.21-.05.31-.11.24-.14.46-.31.68-.48.27-.21.53-.42.79-.64.12-.12.2-.26.24-.42.07-.24.03-.51-.09-.73-.05-.09-.13-.18-.21-.24-.12-.16-.3-.24-.49-.24-.05,0-.1,0-.15.02h0Z"/>
              </g>
              <path class="cls-3" d="M527.26,302.39c-.04-.31-.14-.61-.24-.89-.19-.53-.46-1.02-.79-1.47-.3-.4-.64-.75-1.03-1.07-.43-.34-.88-.63-1.37-.88-.97-.49-2.02-.81-3.08-1.04-1.07-.23-2.16-.36-3.25-.45-1.15-.1-2.3-.18-3.45-.18-.76,0-1.51.03-2.26.11-1.83.19-3.75.7-5.07,2.05-.41.42-.7.92-.92,1.46-.17.41-.25.85-.29,1.3-.01.03-.02.07-.02.11,0,0,0,.01,0,.02-.02.23-.03.46-.02.68,0,.14.11.24.24.26.04.13.08.26.13.38.18.45.45.85.75,1.23.63.8,1.49,1.42,2.37,1.92.9.51,1.89.9,2.88,1.2,1.01.31,2.05.5,3.1.66,2.42.36,4.93.41,7.31-.21.55-.15,1.07-.34,1.59-.57.56-.24,1.07-.55,1.57-.89.44-.31.91-.57,1.28-.97.22-.24.37-.53.43-.84.02-.1.01-.2.02-.29.11-.15.17-.31.19-.5.04-.38,0-.75-.06-1.13ZM525.65,303.75l-.11.18-.07.12c-.07.12-.14.24-.22.36-.24.29-.52.57-.93.9-.39.28-.8.52-1.26.72-.77.33-1.65.56-2.69.7h.16c-.76.09-1.53.15-2.38.15-1.1,0-2.3-.09-3.67-.29l.15.04c-.66-.09-1.53-.22-2.41-.42-.88-.19-1.7-.45-2.44-.76-.77-.34-1.43-.71-2.06-1.18-.36-.3-.66-.6-.92-.92-.24-.33-.42-.65-.56-1-.11-.3-.18-.58-.23-.87v-.09s.02-.1.02-.1c.06-.35.15-.66.26-.96.13-.31.29-.59.5-.87.18-.22.41-.44.67-.65.29-.21.61-.39,1.01-.56.67-.27,1.39-.45,2.2-.56l.3-.03s.01.01.02.02c1.24-.12,2.49-.08,3.73.03.65.06,1.3.15,1.95.24.7.09,1.4.16,2.09.26,1.38.18,2.76.44,4.06.97.04.02.09.04.13.06,0,0,0-.02,0-.02.45.21.84.43,1.2.7.28.23.53.48.75.76.17.23.31.48.45.79.11.27.19.58.27.96.01.24.02.49.03.74l.02.41s0,.07,0,.12c0,0,0,0,0,0,0,0,0,0,0,0,0,.02,0,.03,0,.05Z"/>
            </g>
          </g>
          <path class="cls-3" d="M556.43,291.09h.34c1.85,0,3.53.04,5.13.11,2.82.13,7.03.47,10.93,2.01.19.08.28.24.23.42-.04.13-.17.24-.31.25-1.24.05-2.44.12-3.64.19l-.72.05c-.97.06-1.93.12-2.9.2-2.61.22-4.8.41-7.04.7h0c-.64.09-1.26.21-1.89.35-.6.14-1.2.3-1.8.46l-.57.15c-.46.12-.91.24-1.37.35-.35.08-.7.14-1.05.18-.14.02-.28.03-.42.03-.02,0-.04,0-.05,0-.22,0-.35-.02-.49-.05-.13,0-.18.01-.23.01-.82-.19-1.49-.52-2.02-.96-.31-.26-.57-.52-.77-.8-.13-.18-.24-.36-.34-.56-.09-.18-.16-.38-.22-.56-.03-.12-.02-.25.04-.36.07-.12.17-.2.3-.24.04-.01.08-.02.13-.02.09,0,.17.02.25.07.1.06.17.15.22.29l.08.21c.16.34.34.66.56.96.21.26.44.49.69.69.14.1.25.17.36.24-.28-.29-.51-.62-.72-.97-.19-.32-.32-.65-.42-.94-.12-.35-.17-.71-.2-.99-.02-.18.14-.35.3-.4.02,0,.04,0,.05,0,.25,0,.4.12.45.29.12.39.24.78.4,1.15.02.05.05.1.07.15-.02-.06-.02-.14-.01-.21v-.41s.03-.41.03-.41c0-.11.04-.23.11-.32,0-.28.16-.53.38-.64.19-.09.37-.17.57-.23.24-.07.49-.11.74-.15.64-.1,1.21-.15,1.77-.19,1.05-.08,2.12-.09,3.05-.09h0Z"/>
          <path class="cls-1" d="M564.97,297.66h0l.3.03c.81.11,1.53.29,2.2.56.4.18.72.36,1,.56.26.21.48.43.67.65.21.28.37.56.5.87.11.3.2.61.26.96l.02.19c-.05.3-.12.57-.22.87-.14.35-.33.67-.56,1-.26.32-.56.62-.92.92-.63.47-1.28.84-2.06,1.18-.74.31-1.56.57-2.44.77-.87.2-1.74.33-2.41.42l.15-.04c-1.37.2-2.57.28-3.67.28-.85,0-1.62-.05-2.38-.15h.16c-1.05-.13-1.93-.37-2.7-.69-.45-.2-.87-.44-1.26-.72-.4-.33-.69-.61-.93-.9-.08-.12-.15-.24-.22-.36l-.07-.12-.11-.18c-.01-.09-.01-.14-.01-.19l.02-.41c0-.25.02-.5.03-.74.07-.38.15-.68.26-.96.14-.3.29-.56.45-.78.22-.28.47-.53.75-.76.36-.26.76-.49,1.2-.7,0,.18,0,.32,0,.44.02.25.04.51.1.75.06.25.15.48.26.72.35.78.95,1.51,1.79,2.17.39.3.82.6,1.31.81.42.18.82.35,1.23.44.5.11,1,.17,1.5.17.4,0,.78-.04,1.15-.11,1.59-.3,3.03-1.29,3.85-2.62.42-.68.69-1.42.81-2.19.1-.66.08-1.37-.06-2.1,0,0,.02-.03.02-.03h0Z"/>
          <path class="cls-7" d="M564.29,297h.18c.2,0,.38.14.42.32.03.12.05.23.07.34,0,0-.02.02-.02.02.14.73.16,1.44.06,2.11-.12.77-.39,1.5-.81,2.19-.83,1.34-2.26,2.32-3.85,2.62-.37.08-.75.11-1.15.11-.5,0-1.01-.06-1.5-.17-.41-.1-.82-.27-1.23-.44-.49-.21-.92-.51-1.31-.81-.85-.66-1.45-1.39-1.8-2.17-.1-.24-.19-.47-.26-.72-.06-.24-.08-.49-.09-.74,0-.11,0-.22,0-.37.02-.13.05-.25.08-.35.07-.26.19-.52.36-.73.06-.11.15-.2.27-.27.12-.06.25-.1.38-.1.05,0,.1,0,.15.01.08-.06.18-.12.3-.16.75-.26,1.53-.38,2.26-.48.88-.11,1.7-.19,2.5-.24.8-.04,1.6-.06,2.4-.06.95,0,1.8.03,2.6.09h0Z"/>
          <path class="cls-1" d="M555.29,300.81c-.15,0-.3.05-.44.13-.56.35-1.1.76-1.59,1.21-.3.28-.34.76-.14,1.1.22.37.69.55,1.09.4.11-.02.21-.05.31-.11.24-.14.46-.31.68-.48.27-.21.53-.42.79-.64.12-.12.2-.26.24-.42.07-.24.03-.51-.09-.73-.05-.09-.13-.18-.21-.24-.12-.16-.3-.24-.49-.24-.05,0-.1,0-.15.02h0Z"/>
          <path class="cls-3" d="M548.62,303.52c.02.19.08.35.19.5,0,.1,0,.2.02.29.07.31.21.61.43.84.37.4.83.67,1.28.97.5.34,1.01.65,1.57.89.52.23,1.05.43,1.59.57,2.38.62,4.89.58,7.31.21,1.04-.15,2.09-.35,3.1-.66.99-.3,1.98-.69,2.88-1.2.88-.5,1.74-1.12,2.37-1.92.3-.39.56-.79.75-1.23.05-.12.08-.26.13-.38.14-.02.24-.12.24-.26,0-.23,0-.45-.02-.68,0,0,0-.01,0-.02,0-.04,0-.07-.02-.11-.04-.44-.12-.88-.29-1.3-.21-.54-.51-1.04-.92-1.46-1.32-1.35-3.25-1.85-5.07-2.05-.75-.08-1.51-.11-2.26-.11-1.16,0-2.31.08-3.45.18-1.09.09-2.18.22-3.25.45-1.06.23-2.11.54-3.08,1.04-.49.25-.94.54-1.37.88-.39.31-.73.67-1.03,1.07-.34.45-.6.94-.79,1.47-.11.29-.2.59-.24.89-.05.38-.1.75-.06,1.13ZM550.28,303.7s0,0,0,0c0,0,0,0,0,0,0-.05,0-.09,0-.12l.02-.41c.01-.25.02-.5.03-.74.07-.38.15-.69.27-.96.14-.31.28-.56.45-.79.22-.28.47-.52.75-.76.37-.27.76-.49,1.2-.7,0,0,0,.02,0,.02.04-.02.09-.04.13-.06,1.3-.53,2.68-.79,4.06-.97.7-.09,1.39-.17,2.09-.26.65-.08,1.3-.17,1.95-.24,1.24-.12,2.49-.16,3.73-.03,0,0,.02-.02.02-.02l.3.03c.81.11,1.53.3,2.2.56.4.18.72.36,1.01.56.26.21.48.43.67.65.21.28.37.56.5.87.12.3.2.61.26.96v.1s.02.09.02.09c-.05.29-.12.57-.23.87-.14.35-.33.67-.56,1-.26.32-.56.62-.92.92-.63.47-1.28.85-2.06,1.18-.74.31-1.56.57-2.44.76-.88.2-1.75.33-2.41.42l.15-.04c-1.37.2-2.57.29-3.67.29-.85,0-1.62-.05-2.38-.15h.16c-1.04-.13-1.93-.37-2.69-.7-.46-.2-.87-.44-1.26-.72-.41-.33-.69-.61-.93-.9-.08-.12-.15-.24-.22-.36l-.07-.12-.11-.18s0-.04,0-.05Z"/>
          <path class="cls-3" d="M543.04,318.12c-.12-.12-.29-.19-.46-.19-.08,0-.17.02-.25.05-.13-.03-.25,0-.38.06-.04.02-.07.03-.11.05-1.03.4-2.1.65-3.19.82-1.41.18-2.83.2-4.24.03-.15-.02-.3-.04-.45-.07-.06-.02-.12-.04-.17-.06-.06-.03-.12-.05-.18-.08-.13-.07-.27-.1-.42-.06-.02,0-.04.01-.07.02-.52-.13-1.04-.29-1.54-.49-.15-.06-.3-.13-.44-.21-.06-.03-.12-.04-.19-.04-.12,0-.24.06-.3.17-.09.14-.04.35.1.45,0,.11.02.22.1.3.75.77,1.65,1.39,2.63,1.82,1.05.46,2.18.7,3.32.76.58.03,1.16-.02,1.73-.1.57-.08,1.13-.23,1.67-.43,1.08-.4,2.06-1.04,2.84-1.89.24-.26.26-.65,0-.91ZM532.87,319.44c-.07-.04-.13-.08-.2-.11.05.01.09.03.14.05,0,.03.04.04.05.07Z"/>
          <g>
            <path class="cls-3" d="M537.76,337.56c3.69-.47,8.86-1.4,5.25.84-3.62,2.24-6.92,1.82-9.08.96-2.16-.86.14-1.33,3.83-1.8Z"/>
            <path class="cls-8" d="M522.38,336.97c4.2-4.99,17.16-9.58,31.72-5.89-4.27.25-5.8-.1-14.32.73-.88.14-5.38.63-9.9,1.99-.19.06-2.46.75-3.82,1.35-1.26.51-2.5,1.09-3.68,1.81Z"/>
          </g>
          <path class="cls-13" d="M582.89,305.96s-.37-3.72,4.28-2.88,7.07,5.3,5.03,9.77-10.31,17.68-10.65,13.77c-.33-3.91,1.34-20.66,1.34-20.66Z"/>
          <path class="cls-13" d="M490.8,305.96s.37-3.72-4.28-2.88c-4.65.83-7.07,5.3-5.03,9.77,2.05,4.47,10.31,17.68,10.65,13.77.33-3.91-1.34-20.66-1.34-20.66Z"/>
          <path class="cls-2" d="M631.56,537.49s25.03-2.13,28.66-21.58c0,0-.4,19.73-28.58,24.57l-.08-2.99Z"/>
          <path class="cls-2" d="M448.33,537.49s-25.03-2.13-28.66-21.58c0,0,.4,19.73,28.58,24.57l.08-2.99Z"/>
          <g class="cls-5">
            <path class="cls-5" d="M554.55,490.89c18.14,1.73,36.29,1.74,54.43,0-18.14-1.74-36.29-1.73-54.43,0Z"/>
            <path class="cls-5" d="M525.69,490.89c-18.14-1.74-36.29-1.73-54.43,0,18.14,1.73,36.29,1.74,54.43,0Z"/>
            <path class="cls-5" d="M483.45,811.91c-1.61-5.38-3.33-10.74-5.03-16.1-.06-.18-.32-.1-.28.07,1.19,5.76,2.35,11.54,3.64,17.27.09.41.45.72.89.73,9.21.38,18.37,1.17,27.51-.83-7.82-2.68-17.99-1.36-26.73-1.15Z"/>
            <path class="cls-5" d="M526.71,396.63l8.29,6.42c.5.39,1.22.41,1.75,0l8.29-6.42c18.9-.1,38.55-.42,57.36-1.35-18.98-.95-38.78-1.26-57.83-1.36.17-.64-6.28,4.37-8.68,6.2-1.4-1.06-7.87-5.92-7.87-5.92-.23-.18-.52-.28-.83-.28-13.99.06-29.47.29-43.37.76-4.82.19-9.64.33-14.46.6,4.82.27,9.64.41,14.46.6,13.77.47,29.02.69,42.9.75Z"/>
            <path class="cls-5" d="M449.23,452.49c-.2-.42-.7-.6-1.12-.4-4.18,2.04-7.67,5.29-10.09,9.21,3.04-2.7,6.23-5.28,9.83-7.1.67,3,1.52,5.93,2.43,8.85,3.16,9.75,7.3,19.56,14.32,27.17-4.07-5.52-6.99-11.69-9.41-18.04-2.49-6.4-4.38-13.05-5.97-19.7Z"/>
            <path class="cls-5" d="M524.59,658.08c-.06-.56-.48-1.03-1.06-1.12-15.37-2.52-30.76-4.89-46.22-6.81,14.87,3.4,29.82,6.36,44.8,9.18,1.27,14.98,2.88,29.92,4.91,44.81.03.36.31.65.68.67,1.96.12,3.94.12,5.9.18,1.97.06,3.94.1,5.91.1-3.67-.63-7.36-1.17-11.04-1.67-.89-15.15-2.2-30.26-3.87-45.34Z"/>
            <path class="cls-5" d="M630.6,452.03c-.45-.11-.91.18-1.01.63-3.19,13.13-7.34,26.45-15.32,37.56,8.99-9.99,13.58-23.13,16.74-36.03,3.61,1.82,6.8,4.4,9.84,7.11-2.45-3.96-5.98-7.3-10.25-9.27Z"/>
            <path class="cls-5" d="M608.86,797.29c-1.33,2.69-2.4,5.45-3.36,8.24-.84,2.46-1.52,4.97-2.08,7.5-7.91.37-18.57.78-26.32,1.22-.19,0-.17.29,0,.29,8.06.44,19.5.9,27.45,1.27.6.03,1.16-.35,1.34-.94,1.79-5.69,2.9-11.52,3.26-17.5.02-.16-.22-.21-.28-.07Z"/>
            <path class="cls-5" d="M471.27,542.24c44.42,1.33,93.3,1.32,137.72,0-44.42-1.32-93.3-1.34-137.72,0Z"/>
            <path class="cls-5" d="M538.47,586.69c-.1-7.52-.56-15.04-1.44-22.56-.86,7.42-1.33,14.84-1.43,22.26-1.23.54-2.1,1.86-2.1,3.42s.88,2.88,2.11,3.42c.12,7.19.58,14.37,1.42,21.55.85-7.28,1.31-14.56,1.43-21.84.97-.64,1.66-1.78,1.66-3.13s-.68-2.48-1.65-3.12Z"/>
            <path class="cls-5" d="M602.88,643.73c-13.22,3.5-26.17,7.81-39.03,12.42-.37.14-.67.45-.79.86-2.9,10.72-5.56,21.49-7.67,32.41,3.75-10.23,6.97-20.61,9.95-31.07,6.24-2.15,12.43-4.43,18.6-6.78,6.35-2.51,12.7-5,18.93-7.83Z"/>
          </g>
          <path class="cls-3" d="M491.36,298.77l14.86-26.71c1.84-3.3,5.71-4.9,9.34-3.85l18.1,5.23c1.66.48,3.42.42,5.04-.18l16.4-6.01c3.61-1.32,7.64.07,9.67,3.33l17.53,28.18,5.23-30.2c.9-5.17-1.01-10.42-5.01-13.82l-23.2-19.7c-2.71-2.3-6.16-3.55-9.71-3.52l-26.59.23c-3.54.03-6.95,1.33-9.62,3.66l-21.59,18.88c-3.77,3.3-5.62,8.28-4.91,13.24l4.46,31.22Z"/>
          <path class="cls-3" d="M491.26,298.04l-.92-6.42c.42,2.08.67,4.2.92,6.42Z"/>
          <path class="cls-3" d="M584.05,288.67l-1.74,10.1-.02-.02c.44-3.52.75-6.87,1.76-10.08Z"/>
          <g>
            <g>
              <g>
                <path class="cls-11" d="M437.67,907.27c-19.89-30.24-54.28-102.01-.77-180.9"/>
                <polygon class="cls-12" points="446.17 896.32 448.95 922.41 424.96 911.77 446.17 896.32"/>
              </g>
              <g>
                <path class="cls-11" d="M642.33,907.27c19.89-30.24,54.28-102.01.77-180.9"/>
                <polygon class="cls-12" points="655.04 911.77 631.05 922.41 633.83 896.32 655.04 911.77"/>
              </g>
            </g>
            <g>
              <line class="cls-10" x1="504.45" y1="852.25" x2="504.45" y2="908.5"/>
              <polygon class="cls-12" points="491.58 904.74 504.45 927.04 517.33 904.74 491.58 904.74"/>
            </g>
            <g>
              <line class="cls-10" x1="574.97" y1="850.69" x2="574.97" y2="906.94"/>
              <polygon class="cls-12" points="562.1 903.18 574.97 925.48 587.85 903.18 562.1 903.18"/>
            </g>
            <g>
              <line class="cls-10" x1="536.92" y1="261.3" x2="536.92" y2="204.29"/>
              <polygon class="cls-12" points="548.99 207.82 536.92 186.92 524.85 207.82 548.99 207.82"/>
            </g>
            <g>
              <g>
                <line class="cls-10" x1="535.25" y1="485.47" x2="532.04" y2="441.6"/>
                <polygon class="cls-12" points="544.34 444.24 530.77 424.27 520.26 446 544.34 444.24"/>
              </g>
              <g>
                <line class="cls-10" x1="556.63" y1="503.93" x2="600.5" y2="500.71"/>
                <polygon class="cls-12" points="597.86 513.01 617.83 499.44 596.1 488.93 597.86 513.01"/>
              </g>
              <g>
                <line class="cls-10" x1="549.41" y1="489.98" x2="577.39" y2="456.03"/>
                <polygon class="cls-12" points="584.46 466.43 588.44 442.62 565.83 451.07 584.46 466.43"/>
              </g>
              <g>
                <line class="cls-10" x1="521.9" y1="491.99" x2="489.28" y2="462.48"/>
                <polygon class="cls-12" points="499.99 455.9 476.39 450.83 483.8 473.8 499.99 455.9"/>
              </g>
            </g>
            <g>
              <g>
                <line class="cls-10" x1="541.39" y1="569.18" x2="538.17" y2="525.3"/>
                <polygon class="cls-12" points="553.17 564.77 542.66 586.51 529.09 566.54 553.17 564.77"/>
              </g>
              <g>
                <line class="cls-10" x1="472.92" y1="510.06" x2="516.8" y2="506.85"/>
                <polygon class="cls-12" points="477.33 521.84 455.59 511.33 475.56 497.76 477.33 521.84"/>
              </g>
              <g>
                <line class="cls-10" x1="496.04" y1="554.75" x2="524.01" y2="520.8"/>
                <polygon class="cls-12" points="507.6 559.7 484.99 568.16 488.97 544.35 507.6 559.7"/>
              </g>
              <g>
                <line class="cls-10" x1="584.15" y1="548.29" x2="551.52" y2="518.78"/>
                <polygon class="cls-12" points="589.63 536.97 597.04 559.95 573.43 554.88 589.63 536.97"/>
              </g>
            </g>
          </g>
          <path class="cls-3" d="M508.15,308.51s8.96,7.45,17.52.81c0,0-8,9.68-17.52-.81Z"/>
          <path class="cls-3" d="M550.27,308.51s8.96,7.45,17.52.81c0,0-8,9.68-17.52-.81Z"/>
        </g>
      </g>
    </g>
  </g>
</svg>