<?xml version="1.0" encoding="UTF-8"?>
<svg xmlns="http://www.w3.org/2000/svg" xmlns:xlink="http://www.w3.org/1999/xlink" viewBox="0 0 1080 1080">
  <defs>
    <style>
      .cls-1 {
        fill: #fda287;
      }

      .cls-2 {
        fill: #fcfcfc;
      }

      .cls-3 {
        fill: #fff;
      }

      .cls-4 {
        opacity: .08;
      }

      .cls-4, .cls-5 {
        mix-blend-mode: multiply;
      }

      .cls-6 {
        isolation: isolate;
      }

      .cls-7 {
        opacity: .66;
      }

      .cls-8 {
        fill: #cf8470;
      }

      .cls-9 {
        stroke: url(#linear-gradient);
        stroke-width: 5.46px;
      }

      .cls-9, .cls-10 {
        fill: none;
        stroke-miterlimit: 10;
      }

      .cls-11 {
        fill: #f6604b;
      }

      .cls-12 {
        fill: #ffcca2;
      }

      .cls-10 {
        stroke: #f6604b;
        stroke-width: 8.07px;
      }

      .cls-5 {
        opacity: .3;
      }
    </style>
    <linearGradient id="linear-gradient" x1="2055.2" y1="754.54" x2="2390.59" y2="419.15" gradientTransform="translate(2762.89) rotate(-180) scale(1 -1)" gradientUnits="userSpaceOnUse">
      <stop offset=".11" stop-color="#763ca8"/>
      <stop offset=".99" stop-color="#f6604b"/>
    </linearGradient>
  </defs>
  <g class="cls-6">
    <g id="Layer_1" data-name="Layer 1">
      <g>
        <circle class="cls-9" cx="540" cy="586.85" r="234.43"/>
        <g>
          <path class="cls-12" d="M465.63,562.51l5.11-27.75,3.09,18.59-49.83,93.08c-20.05,48.73,2.18,104.63,36.35,156.71,5.23,7.94,8.58,10.59,3.65,41.76-8.02,50.69,3.79,70.71,21.39,100.61l5.08,7.91c1.14,1.94.5,4.44-1.42,5.63l-54.42,28.38c-3.07,1.42-5.04,4.57-5.04,8.06,0,4.89,3.79,8.84,8.46,8.84h84.34c2.35,0,4.22-1.93,4.19-4.27-.32-17.92-.39-27.94-.54-44.19-.05-6.77.4-13.53,1.37-20.22,2.6-17.69,9.67-55.65,13.08-84.88v-21.53c-.08-2.68-.08-5.13,0-7.27v-75.14l1.76,67.97.17,4.44,1.59,44.83c3.69,26.6,9.16,56.47,11.36,71.58.99,6.68,1.44,13.45,1.37,20.22-.13,16.25-.22,26.27-.52,44.19-.05,2.35,1.84,4.27,4.19,4.27h84.34c4.66,0,8.44-3.95,8.44-8.84,0-3.48-1.98-6.63-5.04-8.06l-54.41-28.38c-1.93-1.19-2.58-3.69-1.42-5.63l5.08-7.91c17.61-29.9,29.42-49.92,21.39-100.61-4.94-31.17-1.57-33.82,3.65-41.76,34.17-52.08,56.38-107.98,36.35-156.71l-49.83-93.08,2.91-19.95,5.7,29.49,41.37,77.75-7.71-87.28c.06-7.32.53-15.55,1.87-25.71,5.09-38.61-4.83-53.82-17.07-64.92-14.34-13-46.93-24.12-58.65-25.31-2.9-.3-5.65-1.33-8.05-2.99-4.6-3.22-7.35-8.47-7.35-14.08v-16.9h-41.21v16.9c0,5.61-2.74,10.87-7.36,14.08-2.39,1.66-5.15,2.68-8.05,2.99-11.72,1.19-44.29,12.31-58.65,25.31-12.24,11.1-22.15,26.31-17.07,64.92,1.33,9.98-8.13,109.14-7.97,116.6l43.93-81.74Z"/>
          <path class="cls-12" d="M540.49,821.98v7.27c-.08-2.68-.08-5.13,0-7.27Z"/>
          <path class="cls-12" d="M540.49,821.98v7.27c-.08-2.68-.08-5.13,0-7.27Z"/>
          <path class="cls-12" d="M540.65,819.68c-.07.72-.12,1.49-.15,2.29v-2.33l.15.03Z"/>
          <path class="cls-5" d="M548.15,616.46c.99-.76,1.64-1.95,1.64-3.3s-.63-2.5-1.59-3.26c-.46-6.82-2.56-13.42-6.8-18.96,2.49,5.94,3.67,11.98,3.99,18.06-2.2.12-3.96,1.93-3.96,4.16s1.72,4,3.89,4.15c-.41,6.32-1.55,12.67-3,19,3.17-5.96,5.28-12.88,5.84-19.86Z"/>
          <path class="cls-5" d="M511.09,458.62c4.85-1.83,9.96-3.59,15.14-3.91,2.64-.05,4.31,1.55,6.17,3.08,4.43,2.99,10.21,3.48,15.15,1.52,3.35-1.05,5.22-4.69,9.02-4.59,8.82.83,17.23,4.36,25,8.54.13.1.27-.11.15-.2-7.44-5.21-16.11-9.46-25.19-10.51-1.86.01-3.74.54-5.3,1.6-2.64,2.61-6.21,3.88-9.84,3.85-3.63.04-7.2-1.23-9.84-3.84-1.56-1.06-3.44-1.59-5.3-1.6-9.08,1.05-17.75,5.3-25.19,10.51-.13.08.01.29.13.21,3.24-1.77,6.47-3.42,9.88-4.64Z"/>
          <path class="cls-5" d="M553.92,687.93c-38.3,11.24-84.91-3.95-99.72-43.24,1.47,4.84,3.4,9.51,5.81,13.97,18.21,31.7,60.96,42.37,93.91,29.27Z"/>
          <path class="cls-5" d="M515.28,706.47c-1.09-3.13-1.84-6.63-2.69-9.83-.15,18.26,10.72,37.75,28.87,43.23-12.83-7.06-21.93-19.55-26.18-33.4Z"/>
          <path class="cls-5" d="M599.49,681.45c-3.56.28-7.09,1.22-10.4,2.7-24.02,11.6-22.35,45.09-44.02,58.94,26.45-12.54,23.03-55.39,54.42-61.64Z"/>
          <path class="cls-5" d="M480.6,825.76c9.99,12.92,31.85,12.92,41.84,0-12.15,10.02-29.68,10.01-41.84,0Z"/>
          <path class="cls-5" d="M558.85,825.76c9.99,12.92,31.85,12.92,41.84,0-12.15,10.02-29.68,10.01-41.84,0Z"/>
          <g>
            <path class="cls-5" d="M501.46,533.07c12.75-6.03,20.73-17.63,21.67-29.46-1.54,11.01-9.23,21.6-21.14,27.23-17.68,8.35-37.91,2.64-45.19-12.76-4.83-10.22-2.71-22.12,4.41-31.42-2.39,2.82-4.3,5.91-5.69,9.14-.42-2.1-.88-4.19-1.38-6.26-.45-2.42-1.12-4.79-2.91-6.63-.63,2.37.45,4.93,1.43,7.11.84,2.09,1.74,4.15,2.68,6.21-3.21,7.74-3.4,16.27.19,23.88,7.4,15.65,27.96,21.46,45.93,12.97Z"/>
            <path class="cls-5" d="M631.65,482.93c-1.89,1.55-2.52,4.27-2.99,6.61-.49,2-.92,4.02-1.33,6.04-1.38-3.15-3.25-6.17-5.59-8.92,7.12,9.3,9.23,21.2,4.41,31.42-7.28,15.4-27.51,21.11-45.19,12.76-11.91-5.63-19.6-16.21-21.14-27.23.94,11.83,8.92,23.43,21.67,29.46,17.97,8.49,38.53,2.69,45.93-12.97,3.62-7.67,3.39-16.27.12-24.05.91-2,1.78-4.01,2.6-6.04,1.05-2.23,1.89-4.54,1.51-7.08Z"/>
          </g>
          <path class="cls-3" d="M540.65,819.68c-.07.72-.12,1.49-.15,2.29v-2.33l.15.03Z"/>
        </g>
        <path class="cls-4" d="M562.01,420.34s-23.67,9.23-41.21,0l-.27-10.34h33.55l8.19,2.98-.25,7.36Z"/>
        <path class="cls-12" d="M622.69,401.57c2.31-10.07,3.57-20.73,3.57-31.78,0-61.43-38.38-111.23-85.73-111.23s-85.73,49.8-85.73,111.23c0,11.05,1.26,21.71,3.57,31.78h164.32Z"/>
        <path class="cls-5" d="M622.69,401.57c2.31-10.07,3.57-20.73,3.57-31.78,0-61.43-38.38-111.23-85.73-111.23s-85.73,49.8-85.73,111.23c0,11.05,1.26,21.71,3.57,31.78h164.32Z"/>
        <path class="cls-12" d="M596.57,341.7l3.35,36.03c0,1.19-.07,2.38-.2,3.55-2.14,18.3-21.61,29.33-44.92,37.36-4.47,1.54-8.78,1.1-13.39,1.1-3.87,0-8.2.43-11.32-.78-23.83-9.32-44.82-18.85-47.01-37.68-.13-1.17-.2-2.36-.2-3.55l3.35-30.99c3.82-.13,9.43-.67,20.69-2.95,7.77-1.56,19.55-3.68,29.04-5.82,16.95-3.82,26.59-8.78,38.15-23.45l22.46,27.18Z"/>
        <g>
          <g>
            <g>
              <path class="cls-10" d="M593.97,584.49s36.77-50.28-1.99-79.83"/>
              <polygon class="cls-11" points="601.57 495.89 575.82 495.56 588.41 518.03 601.57 495.89"/>
            </g>
            <g>
              <path class="cls-10" d="M484.54,584.49s-36.78-50.28,1.99-79.83"/>
              <polygon class="cls-11" points="490.1 518.03 502.69 495.56 476.94 495.89 490.1 518.03"/>
            </g>
          </g>
          <g>
            <path class="cls-10" d="M477.72,413.95s-25.84,23.82-56,26.65"/>
            <polygon class="cls-11" points="426.01 427.44 403.22 439.41 424.98 453.17 426.01 427.44"/>
          </g>
        </g>
        <path class="cls-5" d="M555.45,342.59c.47-.07.98-.11,1.64-.13,1.71-.05,3.37.18,4.63.37,1.32.21,2.62.47,3.92.73,1.29.27,2.46.54,3.58.84,2.65.7,4.91,1.56,6.92,2.65,2.21,1.19,4.06,2.72,5.5,4.53.17.22.14.55-.08.72-.07.05-.15.09-.24.1-.14.02-.29-.02-.4-.1-2.85-1.03-5.41-1.84-7.81-2.46-2.2-.55-3.96-.91-5.64-1.15-1.96-.29-3.94-.42-5.88-.39-1.19.02-2.16.1-3.07.23l-.17.03c-.76.12-1.51.31-2.24.49-.47.12-.95.24-1.43.34,0,0-.01,0-.02,0-.17.03-.29.01-.42-.02-.07.14-.21.26-.38.33-.07.03-.14.05-.22.06-.14.02-.29,0-.46-.05-1.25-.4-2.08-1.4-2.56-2.17-.52-.83-.89-1.84-1.14-3.07-.02-.11,0-.23.08-.33.08-.11.2-.18.32-.2.25-.04.48.14.53.39.04.17.07.35.12.52.13.4.29.77.49,1.13.16.25.34.49.54.7l-.08-.13c-.28-.77-.42-1.63-.42-2.57,0-.2.19-.35.38-.38.22.01.32.07.4.16.09.1.09.21.09.32v.24c.02.17.07.44.14.71.1.26.2.5.34.75.07.11.12.19.18.27-.12-.5-.2-1.01-.25-1.53-.02-.14,0-.28.05-.4.02-.25.14-.45.31-.57.29-.21.56-.36.84-.48.38-.16.8-.26,1.21-.35.24-.06.46-.1.67-.13h0Z"/>
        <path class="cls-5" d="M526.95,342.59c-.47-.07-.98-.11-1.64-.13-1.71-.05-3.37.18-4.63.37-1.32.21-2.62.47-3.92.73-1.29.27-2.46.54-3.58.84-2.65.7-4.91,1.56-6.92,2.65-2.21,1.19-4.06,2.72-5.5,4.53-.17.22-.14.55.08.72.07.05.15.09.24.1.14.02.29-.02.4-.1,2.85-1.03,5.41-1.84,7.81-2.46,2.2-.55,3.96-.91,5.64-1.15,1.96-.29,3.94-.42,5.88-.39,1.19.02,2.16.1,3.07.23l.17.03c.76.12,1.51.31,2.24.49.47.12.95.24,1.43.34,0,0,.01,0,.02,0,.17.03.29.01.42-.02.07.14.21.26.38.33.07.03.14.05.22.06.14.02.29,0,.46-.05,1.25-.4,2.08-1.4,2.56-2.17.52-.83.89-1.84,1.14-3.07.02-.11,0-.23-.08-.33-.08-.11-.2-.18-.32-.2-.25-.04-.48.14-.53.39-.04.17-.07.35-.12.52-.13.4-.29.77-.49,1.13-.16.25-.34.49-.54.7l.08-.13c.28-.77.42-1.63.42-2.57,0-.2-.19-.35-.38-.38-.22.01-.32.07-.4.16-.09.1-.09.21-.09.32v.24c-.02.17-.07.44-.14.71-.1.26-.2.5-.34.75-.07.11-.12.19-.18.27.12-.5.2-1.01.25-1.53.02-.14,0-.28-.05-.4-.02-.25-.14-.45-.31-.57-.29-.21-.56-.36-.84-.48-.38-.16-.8-.26-1.21-.35-.24-.06-.46-.1-.67-.13h0Z"/>
        <g>
          <g>
            <path class="cls-1" d="M540.24,391.89c-.62,0-1.23,0-1.84.02-2.43.03-4.89.14-7.27.24l-2,.09c-2.49.11-4.56.16-6.51.16-.66,0-1.33,0-1.99-.02-.52-.01-.88-.02-1.25-.03h0c-.34,0-.61.16-.62.36,0,.2.25.37.59.38l1.07.03c5.68,1.38,11.56,2.18,17.47,2.39.82.03,1.64.04,2.45.04,2.13,0,4.31-.1,6.46-.29,1.48-.13,2.98-.33,4.6-.61.69-.12,1.38-.26,2.04-.42.48-.11.95-.23,1.42-.34l.91-.22c.14-.04.25-.14.29-.22.04-.08.03-.16-.02-.25.85-.01,1.72-.07,2.58-.15.14-.01.26-.06.35-.14.1-.09.13-.2.09-.3-.07-.17-.31-.28-.6-.28l-.74.06-.6.05c-1.07.06-2.01.08-2.95.08-.5,0-.99,0-1.49-.02-1.64-.04-3.27-.15-4.9-.25-.51-.03-1.02-.07-1.53-.11l-.72-.05c-.75-.05-1.49-.08-2.24-.12-1.02-.04-2.04-.06-3.05-.06h0Z"/>
            <path class="cls-1" d="M559.71,395.72c-.1-.04-.23-.06-.35-.06-.19,0-.37.05-.49.13l-.06.05c-.44.48-.92.93-1.38,1.4-.24,0-.44.09-.54.23-.13.17-.25.34-.38.51h0c-.23.29-.49.57-.73.87-.87.76-1.77,1.52-2.74,2.25h0s0,0,0,0c-.02.02-.04.03-.06.04,0,0-.02.02-.03.02,0,0,0,0,0,0-.14.1-.29.19-.43.29,0,0,0,0,0,0-.36.26-.7.49-1.05.7-.19.11-.37.22-.56.32-.94.61-1.93,1.19-3.05,1.7,0,0,.02,0,.03,0-.49.21-1,.41-1.52.59-.7.18-1.38.38-2.06.59-2.21.1-4.42.13-6.62-.05-.36-.06-.72-.12-1.08-.19-.82-.16-1.61-.36-2.39-.58-1.38-.39-2.7-.86-4.02-1.34-.71-.39-1.38-.8-2.01-1.24-.57-.27-1.11-.54-1.62-.81-.68-.38-1.47-.83-2.16-1.35-.07-.06-.15-.11-.22-.17-.47-.36-.91-.72-1.25-1.13-.29-.32-.66-.79-.86-1.37-.27-.34-.54-.68-.81-1.02l-.51-.42c-.09-.08-.2-.17-.2-.3,0-.05.02-.1.04-.14-.08-.1-.15-.2-.23-.29-.1-.12-.31-.19-.52-.19-.1,0-.19.02-.27.04-.29.1-.36.31-.23.48,2.2,2.82,4.47,5.63,7.4,8.21,1.4,1.24,2.97,2.43,4.91,3.38.93.45,1.91.83,3,1.14.54.14,1.07.27,1.64.38.65.13,1.33.19,2,.26,1.16.11,2.31.08,3.47-.01,1.21-.09,2.37-.34,3.49-.63,1.13-.29,2.19-.7,3.18-1.15,1.03-.47,1.96-1,2.82-1.57,2.38-1.59,3.92-3.53,5.31-5.5,1.25-1.12,2.39-2.28,3.38-3.5.15-.19.12-.42-.21-.54ZM530.68,403.44s0,0-.02,0c-.03-.02-.05-.03-.08-.04.04.02.07.03.1.05Z"/>
          </g>
          <g>
            <path class="cls-8" d="M558.15,394.5c-.09,0-.18.01-.31.03-2.19.47-4.27.87-6.34,1.2-2.18.34-4.4.62-6.61.81-2.11.17-4.18.26-6.15.28h-.7c-1.67,0-3.41-.06-5.17-.19-1.61-.14-2.99-.3-4.34-.52-1.49-.23-3.02-.54-4.68-.95l-.27-.05c-.23-.07-.33-.08-.43-.08-.11,0-.21,0-.32.03-.32.06-.62.21-.74.39l-.11-.19-.23-.19c-.1-.08-.28-.13-.47-.13s-.39.05-.53.13c-.12.08-.2.19-.2.31,0,.13.1.22.2.3l.64.52.57.46c0,.06.01.13.04.22.16.69.61,1.25.93,1.62.39.47.92.88,1.48,1.29.69.52,1.48.98,2.16,1.35,1.32.72,2.84,1.4,4.64,2.08.83.33,1.69.62,2.61.89.61.19,1.25.36,1.89.51.2.05.41.09.62.13,1.19.26,2.25.37,3.21.44.4.03.8.05,1.2.05.69,0,1.39-.04,2.08-.11.9-.08,1.8-.24,2.85-.52,1.03-.26,2.05-.61,3.13-1.08.87-.38,1.77-.85,2.69-1.4.77-.48,1.52-1.03,2.51-1.84.95-.78,1.84-1.67,2.88-2.86l.16-.13c.58-.49,1.17-.97,1.77-1.46l.19-.16c.13-.07.23-.18.29-.3.08-.2.04-.39-.12-.54-.18-.21-.59-.36-.99-.36h0Z"/>
            <path class="cls-3" d="M560.46,392.58c-.29,0-.57.06-.77.18-.09-.02-.2-.03-.29-.03-.19,0-.36.03-.51.07-1.41.43-2.87.83-4.48,1.21-2.93.67-5.69,1.08-8.45,1.26-2.46.15-5,.23-7.53.25h-1.14c-2.99,0-5.63-.11-8.05-.34-2-.21-3.56-.48-4.93-.84-.82-.25-1.41-.47-1.91-.72-.22-.12-.43-.25-.63-.38-.13-.09-.33-.14-.54-.14-.19,0-.38.04-.52.12-.11.03-.21.03-.29.03-.07,0-.13,0-.2,0-.21,0-.41.05-.55.13-.31.19-.33.49-.04.69,2.43,1.66,5.42,2.99,8.9,3.95,1.81.5,3.7.88,5.59,1.13,1.6.21,3.34.32,5.15.32h.68c1.79-.03,3.68-.2,5.59-.52,1.55-.26,3.19-.64,5.15-1.22,1.39-.41,2.74-.86,4.09-1.31l1.31-.44c1.78-.59,3.63-1.26,5.13-2.17.46-.28.49-.72.05-1-.21-.14-.52-.22-.84-.22h0Z"/>
          </g>
          <g>
            <path class="cls-8" d="M531.71,394.45c-.05,0-.11-.01-.16-.02,0,0,.01,0,.02,0,.05,0,.09,0,.14.01Z"/>
            <path class="cls-8" d="M563.03,392.33c.08-.12.12-.25.07-.38-.06-.16-.23-.29-.44-.37-.15-.06-.36-.1-.55-.1-.07,0-.15,0-.21.02-2.44.55-4.76,1.25-7.17,1.83-3.16.73-6.45,1.19-9.82,1.41-4.41.26-8.84.13-13.2-.29.03,0,.06,0,.09.01-.08,0-.15-.02-.23-.02-.01,0-.02,0-.03,0,0,0,0,0,.01,0-4.52-.48-8.94-1.28-13.13-2.43-.07-.02-.13-.04-.2-.06-.24-.07-.45-.11-.72-.07-.25.04-.45.13-.58.26-.14.13-.18.29-.12.44.05.13.21.29.42.35.15.04.31.07.46.11,0,.11.02.22.11.33,2.54,3.02,5.08,6.08,8.8,8.63,1.83,1.25,4.01,2.33,6.48,3.08,2.41.74,5.12,1.17,7.83,1.13,2.37-.03,4.66-.49,6.7-1.2,2.08-.74,3.89-1.76,5.47-2.86,1.67-1.15,3.12-2.42,4.48-3.71.65-.61,1.26-1.23,1.87-1.85.39-.4.78-.79,1.2-1.18.55-.5,1.11-.99,1.65-1.5.31-.29.58-.59.85-.89.2-.23.18-.49-.06-.69ZM558.57,394.94c-.68.68-1.36,1.35-2.05,2.03-1.32,1.3-2.73,2.56-4.3,3.75-1.32.96-2.77,1.85-4.42,2.61-1,.42-2.04.78-3.16,1.06.05-.01.1-.02.15-.03-.05.01-.11.02-.16.03h0s0,0,0,0h0c-.97.21-1.95.35-2.98.42-.96.04-1.9.01-2.85-.06-1.35-.15-2.63-.4-3.87-.74-1.44-.42-2.76-.94-4.01-1.55-1.96-1-3.64-2.15-5.16-3.4-1.99-1.68-3.65-3.48-5.23-5.31,2.25.53,4.53,1.02,6.89,1.37,3.74.57,7.59.89,11.45.97,3.78.07,7.6-.13,11.28-.67,1.85-.27,3.62-.66,5.38-1.09,1.68-.4,3.34-.82,5.01-1.22-.69.59-1.34,1.2-1.97,1.83Z"/>
            <polygon class="cls-8" points="544.63 404.38 544.64 404.38 544.63 404.38 544.63 404.38"/>
          </g>
        </g>
        <path class="cls-5" d="M546.12,382.84c-.12-.12-.29-.19-.46-.19-.08,0-.17.02-.25.05-.13-.03-.25,0-.38.06-.04.02-.07.03-.11.05-1.03.4-2.1.65-3.19.82-1.41.18-2.83.2-4.24.03-.15-.02-.3-.04-.45-.07-.06-.02-.12-.04-.17-.06-.06-.03-.12-.05-.18-.08-.13-.07-.27-.1-.42-.06-.02,0-.04.01-.07.02-.52-.13-1.04-.29-1.54-.49-.15-.06-.3-.13-.44-.21-.06-.03-.12-.04-.19-.04-.12,0-.24.06-.3.17-.09.14-.04.35.1.45,0,.11.02.22.1.3.75.77,1.65,1.39,2.63,1.82,1.05.46,2.18.7,3.32.76.58.03,1.16-.02,1.73-.1.57-.08,1.13-.23,1.67-.43,1.08-.4,2.06-1.04,2.84-1.89.24-.26.26-.65,0-.91ZM535.95,384.17c-.07-.04-.13-.08-.2-.11.05.01.09.03.14.05,0,.03.04.04.05.07Z"/>
        <path class="cls-2" d="M571.79,365.49c-.08.15-.1.34-.05.51.06.18.18.31.34.41.32.2.69.27,1.05.35.09.02.19.02.28,0,.02,0,.04.01.06.02.21.07.47-.08.56-.26.05-.1.07-.23.04-.35.02-.14-.02-.29-.09-.42-.07-.11-.15-.17-.25-.22,0,0,0,0,0,0-.38-.16-.78-.3-1.19-.38-.19-.04-.38,0-.53.11-.09.06-.16.14-.22.25h0Z"/>
        <g>
          <g>
            <path class="cls-2" d="M571.39,360.49h0c.21.11.42.22.62.33.65.4,1.2.83,1.69,1.33.4.43.72.85.96,1.27.21.38.37.79.49,1.24.04.14.08.38.11.62-.26.33-.53.62-.81.91-.57.54-1.24,1.04-1.97,1.47-.76.42-1.62.76-2.54,1.01-1.05.26-2.17.4-3.32.39-.61-.02-1.22-.07-1.82-.16-.59-.09-1.21-.22-1.84-.39l-.13-.06c-1.23-.36-2.5-.93-3.77-1.7-.55-.35-1.02-.72-1.42-1.13-.27-.29-.52-.62-.73-.96-.1-.2-.19-.39-.27-.59l.12-.2c.15-.28.3-.55.46-.82.35-.57.8-1.13,1.29-1.63.25-.24.52-.45.79-.65l.02.19c0,.27,0,.49.04.7.04.22.09.45.16.66.3.86.83,1.65,1.72,2.55.33.33.68.68,1.1.94.34.21.71.43,1.12.57.42.14.76.23,1.07.28h.11c.41.06.81.07,1.19.04,1.56-.13,3.04-.88,4.05-2.06.56-.64.97-1.36,1.18-2.06.14-.45.22-.8.26-1.15.03-.32.04-.62.03-.92l.03-.02h0Z"/>
            <g>
              <path class="cls-7" d="M568.65,358.37c.92.27,1.78.67,2.56,1.19.18.12.2.36.13.52.02.03.03.07.03.11,0,.1.01.19.01.29l-.02.02c0,.31,0,.61-.04.93-.04.35-.11.71-.26,1.15-.21.71-.63,1.42-1.18,2.06-1.02,1.18-2.5,1.93-4.06,2.06-.37.03-.77.01-1.18-.04h-.11c-.32-.06-.65-.15-1.08-.29-.41-.14-.78-.35-1.12-.56-.42-.26-.77-.6-1.1-.94-.9-.9-1.43-1.69-1.73-2.55-.07-.21-.12-.44-.16-.66-.04-.21-.04-.44-.04-.7v-.1s0,0,0-.01c.02-.3.12-.59.22-.83.04-.1.09-.19.15-.28.09-.15.19-.3.3-.44.13-.17.33-.27.56-.28.59-.38,1.3-.67,2.08-.86.48-.11.94-.19,1.42-.23.58-.05,1.17-.05,1.61-.03.44.02.89.05,1.34.12.55.08,1.11.21,1.66.37h0Z"/>
              <path class="cls-2" d="M568.73,363c-.23.08-.42.26-.53.48-.12.24-.11.49-.04.74.14.51.46.93.75,1.36.07.11.17.2.29.27.01.02.03.05.04.07.15.28.55.36.83.27.15-.06.29-.17.38-.32.15-.13.26-.32.3-.52.03-.17,0-.33-.05-.47,0,0,0,0,0,0-.24-.53-.52-1.05-.86-1.52-.16-.22-.4-.36-.65-.4-.15-.02-.31,0-.46.05h0Z"/>
            </g>
            <path class="cls-5" d="M555.06,363.85c-.03.15-.04.3.02.45.39,1.03,1.04,1.95,1.88,2.66.82.7,1.78,1.24,2.76,1.68,1.82.79,3.78,1.33,5.78,1.42,1,.05,2,.02,2.98-.15.96-.16,1.92-.41,2.81-.79s1.76-.85,2.53-1.45c.76-.59,1.44-1.27,2.04-2.01,0-.01,0-.03.01-.04.11-.08.18-.21.16-.36-.1-.76-.31-1.52-.63-2.21-.2-.42-.42-.84-.7-1.23-.26-.37-.54-.7-.86-1.02-.67-.69-1.45-1.27-2.28-1.76-.85-.5-1.75-.9-2.7-1.19-.79-.24-1.59-.44-2.4-.57-.2-.03-.41-.06-.61-.08-.99-.1-1.99-.12-2.98-.01-.9.1-1.82.3-2.64.66-.63.28-1.26.59-1.84.98-.5.33-.95.71-1.38,1.14-.87.89-1.52,2-1.97,3.15-.1.25-.09.51,0,.74ZM556.92,364.66c-.1-.2-.19-.4-.27-.6l.12-.2c.15-.28.3-.55.46-.82.35-.56.79-1.13,1.29-1.63.25-.24.51-.45.79-.65v.03c.23-.17.46-.32.71-.47.7-.38,1.44-.67,2.21-.88,1.05-.25,2.13-.35,3.21-.34,1.27.04,2.55.22,3.77.56.74.22,1.47.5,2.17.84h.02s0-.01,0-.01c.21.11.42.22.62.34.65.4,1.2.83,1.69,1.33.4.43.72.85.96,1.27.21.38.37.79.49,1.25.04.14.08.38.11.62-.26.33-.52.62-.81.91-.57.54-1.24,1.03-1.97,1.46-.76.42-1.62.76-2.54,1.01-1.05.27-2.17.4-3.33.4-.61-.02-1.21-.07-1.81-.16s-1.21-.22-1.84-.39l-.14-.06c-1.23-.36-2.49-.93-3.77-1.71-.55-.35-1.01-.72-1.43-1.13-.27-.29-.52-.62-.73-.95Z"/>
          </g>
          <circle class="cls-2" cx="565.35" cy="362.95" r="1.58"/>
        </g>
        <g>
          <g>
            <path class="cls-2" d="M510.9,360.49h0c-.21.11-.42.22-.62.33-.65.4-1.2.83-1.69,1.33-.4.43-.72.85-.96,1.27-.21.38-.37.79-.49,1.24-.04.14-.08.38-.11.62.26.33.53.62.81.91.57.54,1.24,1.04,1.97,1.47.76.42,1.62.76,2.54,1.01,1.05.26,2.17.4,3.32.39.61-.02,1.22-.07,1.82-.16.59-.09,1.21-.22,1.84-.39l.13-.06c1.23-.36,2.5-.93,3.77-1.7.55-.35,1.02-.72,1.42-1.13.27-.29.52-.62.73-.96.1-.2.19-.39.27-.59l-.12-.2c-.15-.28-.3-.55-.46-.82-.35-.57-.8-1.13-1.29-1.63-.25-.24-.52-.45-.79-.65l-.02.19c0,.27,0,.49-.04.7-.04.22-.09.45-.16.66-.3.86-.83,1.65-1.72,2.55-.33.33-.68.68-1.1.94-.34.21-.71.43-1.12.57-.42.14-.76.23-1.07.28h-.11c-.41.06-.81.07-1.19.04-1.56-.13-3.04-.88-4.05-2.06-.56-.64-.97-1.36-1.18-2.06-.14-.45-.22-.8-.26-1.15-.03-.32-.04-.62-.03-.92l-.03-.02h0Z"/>
            <g>
              <path class="cls-7" d="M513.64,358.37c-.92.27-1.78.67-2.56,1.19-.18.12-.2.36-.13.52-.02.03-.03.07-.03.11,0,.1-.01.19-.01.29l.02.02c0,.31,0,.61.04.93.04.35.11.71.26,1.15.21.71.63,1.42,1.18,2.06,1.02,1.18,2.5,1.93,4.06,2.06.37.03.77.01,1.18-.04h.11c.32-.06.65-.15,1.08-.29.41-.14.78-.35,1.12-.56.42-.26.77-.6,1.1-.94.9-.9,1.43-1.69,1.73-2.55.07-.21.12-.44.16-.66.04-.21.04-.44.04-.7v-.1s0,0,0-.01c-.02-.3-.12-.59-.22-.83-.04-.1-.09-.19-.15-.28-.09-.15-.19-.3-.3-.44-.13-.17-.33-.27-.56-.28-.59-.38-1.3-.67-2.08-.86-.48-.11-.94-.19-1.42-.23-.58-.05-1.17-.05-1.61-.03-.44.02-.89.05-1.34.12-.55.08-1.11.21-1.66.37h0Z"/>
              <path class="cls-2" d="M513.56,363c.23.08.42.26.53.48.12.24.11.49.04.74-.14.51-.46.93-.75,1.36-.07.11-.17.2-.29.27-.01.02-.03.05-.04.07-.15.28-.55.36-.83.27-.15-.06-.29-.17-.38-.32-.15-.13-.26-.32-.3-.52-.03-.17,0-.33.05-.47,0,0,0,0,0,0,.24-.53.52-1.05.86-1.52.16-.22.4-.36.65-.4.15-.02.31,0,.46.05h0Z"/>
            </g>
            <path class="cls-5" d="M527.23,363.11c-.46-1.15-1.1-2.26-1.97-3.15-.42-.43-.87-.81-1.38-1.14-.58-.39-1.2-.7-1.84-.98-.83-.36-1.75-.56-2.64-.66-.99-.11-1.99-.09-2.98.01-.2.02-.41.04-.61.08-.81.12-1.61.32-2.4.57-.94.29-1.84.69-2.7,1.19-.83.49-1.61,1.07-2.28,1.76-.32.32-.61.66-.86,1.02-.27.38-.5.8-.7,1.23-.32.69-.53,1.46-.63,2.21-.02.14.05.28.16.36,0,.01,0,.03.01.04.6.75,1.28,1.43,2.04,2.01.77.6,1.64,1.07,2.53,1.45s1.85.63,2.81.79c.99.17,1.99.2,2.98.15,1.99-.09,3.95-.63,5.78-1.42.99-.43,1.94-.98,2.76-1.68.84-.71,1.49-1.63,1.88-2.66.06-.15.05-.3.02-.45.09-.23.1-.49,0-.74ZM524.64,365.61c-.41.41-.87.78-1.43,1.13-1.28.77-2.54,1.34-3.77,1.71l-.14.06c-.63.17-1.25.3-1.84.39-.6.09-1.21.14-1.81.16-1.16,0-2.28-.13-3.33-.4-.92-.25-1.78-.59-2.54-1.01-.74-.43-1.4-.93-1.97-1.46-.28-.29-.55-.58-.81-.91.03-.24.08-.48.11-.62.12-.45.28-.86.49-1.25.24-.42.56-.84.96-1.27.49-.5,1.05-.93,1.69-1.33.2-.12.41-.23.62-.34h0s.02.01.02.01c.69-.34,1.42-.62,2.17-.84,1.23-.34,2.5-.52,3.77-.56,1.08,0,2.15.1,3.21.34.77.21,1.5.5,2.21.88.24.15.48.3.71.47v-.03c.28.2.54.41.79.65.49.5.94,1.07,1.29,1.63.16.27.31.54.46.82l.12.2c-.08.2-.17.39-.27.6-.21.34-.46.66-.73.95Z"/>
          </g>
          <circle class="cls-2" cx="516.94" cy="362.95" r="1.58"/>
        </g>
        <path class="cls-12" d="M600.79,365.12l-1.68-17.68s13.59-4.88,11.54,9.67c-2.05,14.55-9.86,8.01-9.86,8.01Z"/>
        <path class="cls-12" d="M481.85,364.36l1.68-17.68s-13.59-4.88-11.54,9.67c2.05,14.55,9.86,8.01,9.86,8.01Z"/>
      </g>
    </g>
  </g>
</svg>