<?xml version="1.0" encoding="UTF-8"?>
<svg xmlns="http://www.w3.org/2000/svg" xmlns:xlink="http://www.w3.org/1999/xlink" viewBox="0 0 1080 1080">
  <defs>
    <style>
      .cls-1 {
        clip-path: url(#clippath-6);
      }

      .cls-2 {
        clip-path: url(#clippath-4);
      }

      .cls-3 {
        fill: #fcfcfc;
      }

      .cls-4, .cls-5 {
        fill: none;
      }

      .cls-6 {
        clip-path: url(#clippath-1);
      }

      .cls-7 {
        opacity: .08;
      }

      .cls-7, .cls-8, .cls-9 {
        mix-blend-mode: multiply;
      }

      .cls-10 {
        isolation: isolate;
      }

      .cls-11 {
        clip-path: url(#clippath-5);
      }

      .cls-12 {
        clip-path: url(#clippath-3);
      }

      .cls-13 {
        fill: #cf8470;
      }

      .cls-5 {
        stroke: #f6604b;
        stroke-miterlimit: 10;
        stroke-width: 8.07px;
      }

      .cls-14 {
        fill: #f6604b;
      }

      .cls-15 {
        fill: #ffcca2;
      }

      .cls-16 {
        clip-path: url(#clippath-2);
      }

      .cls-17 {
        fill: #b28e71;
      }

      .cls-18 {
        opacity: .66;
      }

      .cls-19 {
        fill: url(#linear-gradient);
      }

      .cls-20 {
        clip-path: url(#clippath);
      }

      .cls-8 {
        opacity: .3;
      }

      .cls-9 {
        opacity: .5;
      }
    </style>
    <linearGradient id="linear-gradient" x1="0" y1="1080" x2="1" y2="1080" gradientTransform="translate(-421897.49 423215.84) rotate(-135) scale(553.42)" gradientUnits="userSpaceOnUse">
      <stop offset="0" stop-color="#763ca8"/>
      <stop offset=".11" stop-color="#763ca8"/>
      <stop offset=".99" stop-color="#f6604b"/>
      <stop offset="1" stop-color="#f6604b"/>
    </linearGradient>
    <clipPath id="clippath">
      <rect class="cls-4" x="516.51" y="274.33" width="49.85" height="29.06"/>
    </clipPath>
    <clipPath id="clippath-1">
      <rect class="cls-4" x="540.37" y="366.01" width="1.45" height="50.65"/>
    </clipPath>
    <clipPath id="clippath-2">
      <rect class="cls-4" x="520.62" y="246.36" width="9.96" height="9.74"/>
    </clipPath>
    <clipPath id="clippath-3">
      <rect class="cls-4" x="516.35" y="245.94" width="18.51" height="10.38"/>
    </clipPath>
    <clipPath id="clippath-4">
      <rect class="cls-4" x="555.1" y="246.36" width="9.96" height="9.74"/>
    </clipPath>
    <clipPath id="clippath-5">
      <rect class="cls-4" x="550.82" y="245.94" width="18.51" height="10.38"/>
    </clipPath>
    <clipPath id="clippath-6">
      <rect class="cls-4" x="539.12" y="265.37" width=".1" height=".05"/>
    </clipPath>
  </defs>
  <g class="cls-10">
    <g id="Layer_1" data-name="Layer 1">
      <g>
        <polygon class="cls-19" points="785.81 248.54 787.62 249.39 540 776.63 291.04 246.54 788.96 246.54 787.62 249.39 785.81 248.54 785.81 250.54 297.34 250.54 540 767.22 784 247.69 785.81 248.54 785.81 250.54 785.81 248.54"/>
        <path class="cls-15" d="M676.9,464.1l1.12,44.02-23.55,124.03-24-11.99,13.89-104.46-14.72-104.63-14.59,72.06-19.42,82.43,13.27,105.93-38.58,175.27,6.65,29.92-11.06,85.01h-24.05c1.06-105.83.75-218.25-.85-320.42-1.62,102.17-1.93,214.58-.87,320.42h-23.2l-12.43-85.01,4.44-29.92-35.75-178.6,9.85-105.15-18.09-84.38-13.87-58.16-12.23,95.93,18.54,109.54c-8.44.49-17.29,1.52-25.83,2.76l-33.48-114.04,6.72-53.44-2.6-64.91,10.7-45.66,94.71-37.64c5.33-1.79,8.89-6.78,8.89-12.4v-22.95h49.85v23.3c0,5.83,3.87,10.97,9.46,12.58l83.2,29.25,22.11,52.08-4.24,69.22Z"/>
        <path class="cls-15" d="M431.61,628.93l-.64,32.79,18.1,29.62,15.09-.96-.94-37.29,9.65,5.63,1.86-3.73-17.31-28.84-.03-.21c-8.45.49-17.29,1.52-25.83,2.77l.05.22Z"/>
        <polygon class="cls-15" points="630.46 620.15 608.01 653.08 612.48 658.67 622.17 650.48 620.79 687.84 635.96 691.84 656.47 652.83 654.47 632.16 630.46 620.15"/>
        <g class="cls-7">
          <g class="cls-20">
            <polygon points="566.36 274.33 566.36 284.83 549.76 303.39 534.7 303.39 516.51 284.27 516.51 274.33 566.36 274.33"/>
          </g>
        </g>
        <g class="cls-9">
          <g class="cls-6">
            <path d="M541.1,366.01c.96,16.88.97,33.77,0,50.65-.97-16.88-.96-33.77,0-50.65"/>
          </g>
        </g>
        <polygon class="cls-15" points="581.42 235.3 577.62 267.92 550.5 299.57 534.06 299.57 505.4 266.79 502.2 240.46 502.97 224.93 522.42 215.07 540.19 218.78 554.33 214.33 579.99 220.29 581.42 235.3"/>
        <path class="cls-15" d="M518.11,967.7l-55.08,27.22v9.4h77.6c-.19-14.05-.36-28.28-.5-42.62h-23.13l1.11,6Z"/>
        <path class="cls-15" d="M541.86,961.7c-.14,14.34-.31,28.57-.5,42.62h80.61v-7.8l-57.13-28.82,1.02-6h-23.99Z"/>
        <path class="cls-17" d="M542.37,524.8c-.08-7.63-.49-15.26-1.27-22.88-.77,7.54-1.18,15.08-1.27,22.62-1.32.41-2.3,1.61-2.3,3.07s.98,2.65,2.31,3.07c.1,7.3.5,14.6,1.26,21.9.76-7.38,1.17-14.78,1.26-22.17.99-.56,1.69-1.58,1.69-2.8s-.7-2.24-1.69-2.8"/>
        <path class="cls-17" d="M524.54,597.89c-8.76-2.03-17.56-3.84-26.49-5.05,7.9,2.99,15.95,5.46,24.06,7.73,2.33,6.79,4.75,13.55,7.41,20.21,2.74,6.95,5.68,13.8,9,20.5-1.72-7.28-3.84-14.43-6.18-21.52-2.38-7.37-5.05-14.64-7.81-21.87"/>
        <path class="cls-17" d="M452.13,421.13c-.11-.46-.6-.75-1.05-.55-3.07,1.34-4.8,3.65-6.49,5.99-4.72,7.11-6.74,15.58-8.05,23.89,2.96-9.54,5.63-21.98,14.36-27.79,4.18,10.7,10.79,20.97,20.5,27.31-8.95-7.58-15.15-18.01-19.28-28.84"/>
        <path class="cls-17" d="M574.13,594.66c-9.2,9.29-16.82,19.78-22.83,31.39,9.19-9.3,16.83-19.77,22.83-31.39"/>
        <path class="cls-17" d="M622.23,341.7c-1.5.32-22.28,4.53-22.98,4.68-1.54.73-6.13-.76-7.6-.97-6.46-1.38-23.92-5.11-30.57-6.53-1.88-.31-5.85-1.45-7.72-1.5-.96.05-1.73.62-2.47,1-1.51.82-5.4,2.94-6.86,3.74-.77.43-1.48.86-2.31.83-1.43,0-3.28-1.49-4.6-2.08l-4.57-2.49c-1.67-1.19-3.19-1.16-5.1-.59l-5.09,1.09-20.38,4.36-10.19,2.18-5.1,1.09c-1.49.42-3.51-.44-5.06-.64l-20.42-4.16c-.15-.03-.19.2-.05.23,0,0,20.23,5.13,20.22,5.13,1.64.3,3.91,1.25,5.59.79,14-2.52,28.63-5.37,42.53-8.26.6-.19,1.5.5,1.99.75l4.55,2.54c1.71.84,3.62,2.44,5.69,2.41,2.08.05,3.98-1.57,5.69-2.4l4.55-2.54c.44-.22,1.33-.88,1.85-.77.34.06,1.37.27,1.73.34,11.64,2.39,24.06,4.9,35.8,6.99,1.15.14,5.7,1.25,6.78,1.06,2.68-.49,21.02-5.24,24.16-6.03.15-.03.09-.26-.05-.23"/>
        <path class="cls-17" d="M499.69,490.22c-3.96,2.66-7.67,5.79-10.44,9.63,3.27-3.41,7.05-6.23,11.17-8.43,26.17-13.9,70.02-13.2,91.9,8.43-20.24-25.03-66.7-25.97-92.62-9.63"/>
        <path class="cls-17" d="M597.81,447.08c-12.72-8.92-28.96-11.86-44.25-11.63,15.07,3.27,29.89,5.86,44.25,11.63"/>
        <path class="cls-17" d="M636.01,419.32c-1.83-3.31-3.35-6.46-6.9-8.52-.48-.26-1.1,0-1.25.53-4,13.54-9.63,27.13-19.19,37.76,10.54-9.28,16.63-22.58,20.64-35.85,2.12,1.65,3.83,4.54,5.09,6.89,4.63,9.27,6.91,19.52,9.13,29.6-1.16-10.35-2.98-20.91-7.53-30.41"/>
        <path class="cls-17" d="M484.78,447.08c14.36-5.77,29.18-8.36,44.25-11.63-15.29-.23-31.53,2.71-44.25,11.63"/>
        <path class="cls-5" d="M695.72,205.14s-37.97-9.16-60.53,1.76"/>
        <polygon class="cls-14" points="632.97 193.67 618.52 214.98 644.2 216.85 632.97 193.67"/>
        <path class="cls-5" d="M454.43,205.39s-46.8-9.8-74.61,1.89"/>
        <polygon class="cls-14" points="453.38 192.01 472.57 209.19 448.11 217.22 453.38 192.01"/>
        <path class="cls-5" d="M534.28,63.82s13.59,14.29,8.88,34.03c-4.71,19.73-4.65,18.67-4.54,32.08"/>
        <polygon class="cls-14" points="525.72 126.27 538.78 148.46 551.47 126.06 525.72 126.27"/>
        <path class="cls-5" d="M419.63,106.53s18.32,1.77,30.31,14.1c11.98,12.33,20.44,24.81,33.83,34.96"/>
        <polygon class="cls-14" points="472.99 163.57 498.54 166.78 488.55 143.05 472.99 163.57"/>
        <path class="cls-5" d="M665.53,108.71s-18.33.8-30.31,13.14c-11.98,12.33-20.44,24.81-33.83,34.96"/>
        <polygon class="cls-14" points="596.62 144.27 586.63 168 612.18 164.79 596.62 144.27"/>
        <path class="cls-5" d="M541.52,421.56s-8.62-126.03,98.83-141.42"/>
        <polygon class="cls-14" points="637.78 293.49 658.82 278.65 635.45 267.85 637.78 293.49"/>
        <path class="cls-5" d="M541.52,421.56s1.71-100.02,119.92-115.38"/>
        <polygon class="cls-14" points="658.96 319.53 679.9 304.54 656.45 293.89 658.96 319.53"/>
        <path class="cls-5" d="M541.52,421.56s34.63-116.5,142.53-82.17"/>
        <polygon class="cls-14" points="676.01 350.37 701.38 345.96 684.87 326.19 676.01 350.37"/>
        <path class="cls-3" d="M522.04,247.49h0l-.16.02c-.92.15-1.66.34-2.32.62-.47.21-.88.45-1.25.73-.26.21-.49.44-.69.68-.18.24-.33.49-.45.76-.07.17-.12.31-.17.46,0,0-.02.09-.02.09l-.02.09c-.01.14-.01.28,0,.42.03.18.08.34.13.49.08.17.18.34.3.51.19.24.41.45.68.66.5.38,1.09.71,1.86,1.04.64.27,1.36.52,2.13.73-.31-.33-.54-.62-.7-.9-.18-.31-.31-.64-.4-.98l-.03-.11c-.06-.16-.11-.32-.15-.49-.13-.56-.19-1.08-.16-1.55.04-.5.13-.94.29-1.34.05-.2.11-.4.18-.59.13-.29.27-.54.45-.76.15-.2.32-.38.5-.55v-.03Z"/>
        <path class="cls-3" d="M529.85,248.6h0,0s0,0,0,0c.61,1,.86,2.28.69,3.52-.11.88-.44,1.69-.95,2.35-.11.14-.22.27-.35.39.64-.12,1.23-.31,1.82-.55.54-.24,1-.5,1.41-.8.23-.19.43-.39.6-.6.15-.21.28-.43.41-.7-.12-.1-.21-.19-.28-.31l-.05-.13c-.21-.37-.46-.75-.73-1.12-.4-.49-.8-.9-1.24-1.26-.39-.29-.82-.54-1.32-.78,0,0,0,0-.01,0"/>
        <g class="cls-18">
          <g class="cls-16">
            <path d="M524.81,246.39c-.31.03-.62.09-.93.17-.29.07-.6.19-.96.36-.25.12-.5.28-.77.49-.03.03-.07.06-.11.09v.02c-.18.17-.35.35-.5.55-.17.22-.32.47-.45.76-.08.19-.14.39-.18.59-.16.4-.25.84-.28,1.34-.03.47.02.99.15,1.55.04.17.09.33.15.49l.03.11c.09.34.22.67.4.98.13.23.31.46.54.72.11.11.22.22.35.32.66.53,1.5.89,2.5,1.07.37.06.75.09,1.12.09.56,0,1.1-.07,1.63-.22.67-.18,1.28-.54,1.77-1.02-.01,0-.02,0-.03,0,.13-.12.24-.25.35-.39.51-.65.83-1.46.95-2.34.17-1.21-.07-2.44-.63-3.43-.05-.09-.11-.18-.17-.27-.66-.95-1.78-1.66-3.09-1.95-.4-.09-.82-.13-1.24-.13-.2,0-.4.01-.6.03"/>
          </g>
        </g>
        <path class="cls-3" d="M520.07,249.39c-.21.21-.21.55,0,.75.21.21.43.42.63.65.1.11.21.21.32.31.08.07.17.13.26.19.1.04.2.09.3.12.12.03.24.03.36,0,.17-.05.31-.16.4-.31.06-.11.09-.22.09-.34,0-.16-.07-.37-.2-.47-.08-.07-.16-.13-.25-.2-.09-.05-.18-.1-.27-.14-.22-.1-.43-.2-.62-.34-.09-.08-.17-.15-.26-.23-.11-.1-.24-.15-.38-.15s-.27.05-.37.15"/>
        <g class="cls-8">
          <g class="cls-12">
            <path d="M534.83,251.22c-.05-.13-.09-.26-.14-.4-.06-.17-.13-.33-.21-.49-.12-.27-.28-.51-.45-.74-.4-.54-.87-1.02-1.4-1.43-.42-.33-.86-.63-1.33-.89-.34-.18-.7-.34-1.06-.47-.68-.27-1.41-.45-2.13-.58-.85-.16-1.71-.24-2.57-.27-.19,0-.39,0-.58,0-.65,0-1.3.04-1.95.12-.83.11-1.67.27-2.47.54-.73.25-1.44.59-2.07,1.04-.59.42-1.09.94-1.49,1.54-.28.43-.49.92-.63,1.41-.04.13.02.26.11.35-.01.09-.02.18-.03.27,0,.31.06.61.17.9.23.61.67,1.11,1.15,1.52.58.49,1.24.88,1.92,1.21.71.35,1.46.63,2.23.86.65.2,1.31.36,1.98.47.5.08,1,.13,1.51.14.66.01,1.31-.02,1.97-.07.8-.06,1.59-.17,2.38-.31.62-.11,1.24-.26,1.84-.47.6-.2,1.19-.46,1.72-.81.49-.33.92-.74,1.21-1.25.16-.29.25-.59.28-.92.03-.25.03-.5.02-.76.06-.17.08-.36.02-.52M533.07,252.91c-.18.22-.38.41-.6.6-.41.3-.87.56-1.41.8-.46.2-.93.35-1.42.47-.64.17-1.29.3-1.95.39-.65.09-1.3.14-1.95.15-.46.01-.92,0-1.38-.06-.65-.09-1.3-.24-1.93-.4-.13-.03-.25-.07-.38-.1.01,0,.02.01.03.02-.77-.22-1.49-.46-2.13-.73-.77-.33-1.36-.66-1.86-1.04-.26-.21-.48-.43-.67-.66-.12-.17-.22-.34-.3-.51-.06-.15-.1-.31-.14-.49-.01-.14-.01-.28,0-.42l.02-.08s0,0,0,0h0s.02-.1.02-.1c.05-.15.1-.3.17-.46.12-.26.26-.51.45-.76.2-.24.43-.47.68-.68.37-.27.78-.51,1.25-.73.66-.27,1.4-.47,2.33-.62l.16-.02h0v.02c1.24-.14,2.5-.12,3.74.02.03,0,.05,0,.07.01,1.31.19,2.62.5,3.85,1.01.05.02.1.05.15.07,0,0,0-.01-.01-.02h0s.01,0,.01,0c.5.24.93.49,1.32.78.44.36.85.77,1.24,1.26.27.37.52.75.73,1.12l.05.13c.07.11.16.2.27.29,0,0,0,0,0,0,0,0,0,0,.01.01-.13.27-.26.49-.41.71"/>
          </g>
        </g>
        <path class="cls-3" d="M563.65,247.49h0l.16.02c.92.15,1.66.34,2.32.62.47.21.88.45,1.25.73.26.21.49.44.69.68.18.24.33.49.45.76.07.17.12.31.17.46l.02.09.02.09c.01.14.01.28,0,.42-.03.18-.08.34-.13.49-.08.17-.18.34-.3.51-.19.24-.41.45-.68.66-.5.38-1.09.71-1.86,1.04-.64.27-1.36.52-2.13.73.31-.33.54-.62.7-.9.18-.31.31-.64.4-.98l.03-.11c.06-.16.11-.32.15-.49.13-.56.19-1.08.16-1.55-.04-.5-.13-.94-.29-1.34-.05-.2-.11-.4-.18-.59-.13-.29-.27-.54-.45-.76-.15-.2-.32-.38-.5-.55v-.03Z"/>
        <path class="cls-3" d="M555.84,248.6h0,0s0,0,0,0c-.61,1-.86,2.28-.69,3.52.11.88.44,1.69.95,2.35.11.14.22.27.35.39-.64-.12-1.23-.31-1.82-.55-.54-.24-1-.5-1.41-.8-.23-.19-.43-.39-.6-.6-.15-.21-.28-.43-.41-.7.12-.1.21-.19.28-.31l.05-.13c.21-.37.46-.75.73-1.12.4-.49.8-.9,1.24-1.26.39-.29.82-.54,1.32-.78,0,0,0,0,.01,0"/>
        <g class="cls-18">
          <g class="cls-2">
            <path d="M560.87,246.39c.31.03.62.09.93.17.29.07.6.19.96.36.25.12.5.28.77.49.03.03.07.06.11.09v.02c.18.17.35.35.5.55.17.22.32.47.45.76.08.19.14.39.18.59.16.4.25.84.28,1.34.03.47-.02.99-.15,1.55-.04.17-.09.33-.15.49l-.03.11c-.09.34-.22.67-.4.98-.13.23-.31.46-.54.72-.11.11-.22.22-.35.32-.66.53-1.5.89-2.5,1.07-.37.06-.75.09-1.12.09-.56,0-1.1-.07-1.63-.22-.67-.18-1.28-.54-1.77-1.02.01,0,.02,0,.03,0-.13-.12-.24-.25-.35-.39-.51-.65-.83-1.46-.95-2.34-.17-1.21.07-2.44.63-3.43.05-.09.11-.18.17-.27.66-.95,1.78-1.66,3.09-1.95.4-.09.82-.13,1.24-.13.2,0,.4.01.6.03"/>
          </g>
        </g>
        <path class="cls-3" d="M556.5,252.05c-.14.25-.47.35-.72.21-.26-.15-.52-.3-.79-.43-.13-.07-.26-.14-.38-.22-.09-.06-.18-.13-.26-.2-.07-.08-.14-.17-.2-.25-.06-.11-.1-.22-.1-.34,0-.17.07-.35.18-.47.09-.09.19-.15.3-.18.15-.04.38-.04.51.06.09.06.17.12.26.19.08.07.14.14.21.22.16.18.31.35.5.51.1.07.19.13.29.19.13.08.21.19.25.32.04.13.03.27-.05.4"/>
        <g class="cls-8">
          <g class="cls-11">
            <path d="M550.88,251.74c0,.25,0,.51.02.76.03.33.12.63.28.92.29.51.72.92,1.21,1.25.53.35,1.12.61,1.72.81.6.2,1.22.35,1.84.47.79.15,1.58.25,2.38.31.65.05,1.31.08,1.97.07.51,0,1.01-.05,1.51-.14.67-.12,1.33-.27,1.98-.47.76-.23,1.51-.51,2.23-.86.68-.33,1.34-.72,1.92-1.21.48-.41.93-.91,1.15-1.52.11-.29.17-.59.17-.9,0-.09-.02-.18-.03-.27.1-.08.15-.22.11-.35-.14-.49-.35-.98-.63-1.41-.4-.61-.9-1.12-1.49-1.54-.63-.44-1.34-.78-2.07-1.04-.79-.27-1.63-.44-2.47-.54-.65-.08-1.3-.12-1.95-.12-.19,0-.39,0-.58,0-.86.03-1.72.12-2.57.27-.72.13-1.44.31-2.13.58-.36.14-.72.29-1.06.47-.47.26-.91.56-1.33.89-.53.42-1,.89-1.4,1.44-.17.23-.33.48-.45.74-.07.16-.15.32-.21.49-.05.13-.09.27-.14.4-.06.15-.04.35.02.52M552.21,252.21s0,0,.01-.01c0,0,0,0,0,0,.11-.1.2-.19.27-.29l.05-.13c.21-.37.46-.75.73-1.12.39-.49.8-.9,1.24-1.26.39-.29.82-.54,1.32-.78,0,0,0,0,.01,0h0s0,.01-.01.02c.05-.02.1-.05.15-.07,1.23-.51,2.54-.82,3.85-1.01.02,0,.05,0,.07,0,1.24-.15,2.5-.17,3.73-.03v-.02h.01l.16.02c.92.15,1.66.35,2.33.62.47.22.88.45,1.25.73.26.21.49.44.68.68.18.25.33.49.44.76.07.16.12.31.17.46,0,0,.02.09.02.09h0s0,0,0,0l.02.08c.01.14.01.28,0,.42-.03.18-.08.34-.14.49-.08.17-.18.34-.3.51-.19.23-.41.45-.67.66-.5.38-1.09.71-1.86,1.04-.64.27-1.36.51-2.13.73,0-.01.01-.02.03-.03-.13.04-.25.07-.38.1-.64.16-1.28.31-1.93.4-.46.06-.92.07-1.38.06-.65-.02-1.31-.07-1.95-.16-.66-.09-1.31-.22-1.95-.39-.49-.12-.96-.27-1.42-.47-.54-.24-1-.5-1.41-.8-.22-.19-.42-.38-.6-.6-.15-.21-.28-.43-.41-.71"/>
          </g>
        </g>
        <path class="cls-17" d="M545.51,266.08c-.97.54-2.2.7-2.2.7-.68-.03-1.36-.12-2.03-.27-.12-.04-.24-.06-.36-.1-.04-.02-.09-.04-.13-.05-.05-.03-.09-.05-.14-.08-.1-.06-.21-.09-.34-.07-.01,0-.04.01-.06,0-.41-.13-.82-.31-1.21-.51-.12-.07-.22-.13-.34-.21-.05-.02-.11-.04-.15-.04-.11-.01-.21.02-.27.11-.08.12-.05.28.05.37,0,.08.01.18.06.25.08.12.18.22.28.33h.01s.01.02.01.02c.01.02.04.03.06.06.47.51,1.04.94,1.64,1.27.81.44,1.71.73,2.63.86.13.03.27.02.41.04l.23.02c1.86.17,3.49-.46,4.24-1.27,0-.01.02-.01.02-.03.29-.32.43-.67.41-1-.11-1.24-1.86-.95-2.82-.41M539.96,266.76s0,.03.01.03c-.03,0-.05-.02-.08-.05l.07.02Z"/>
        <g class="cls-8">
          <g class="cls-1">
            <path d="M539.22,265.42s-.07-.02-.1-.05l.08.02s0,.03.02.03"/>
          </g>
        </g>
        <path class="cls-17" d="M552.35,226.15h.08c.74-.07,1.49-.06,2.12-.04,1.01.04,2.08.16,3.16.35,2.23.41,4.48,1.16,6.69,2.23,2.25,1.1,4.29,2.51,6.06,4.2,1.88,1.8,3.44,4.07,4.51,6.56.09.21.11.5-.07.67-.05.05-.11.08-.17.08-.04.03-.08.04-.12.05-.09,0-.17-.03-.25-.11-.42-.44-.85-.86-1.29-1.25-.82-.71-1.73-1.39-2.7-2.01-1.02-.65-2.07-1.23-3.13-1.74-.64-.29-1.25-.54-1.87-.79-.71-.27-1.44-.5-2.13-.7-1.27-.36-2.59-.61-4.04-.76-.87-.07-1.82-.08-2.72-.01h-.17c-.82.09-1.66.24-2.51.47l-.46.14c-.32.1-.64.2-.97.28-.15.06-.21.08-.28.08-.05,0-.1,0-.15,0-.08.3-.2.44-.33.51-.05.02-.1.04-.15.04-.05,0-.1,0-.15-.01-.1-.03-.19-.09-.27-.18-.81-.74-1.43-1.38-1.97-2.03-.26-.31-.51-.68-.8-1.14-.22-.35-.41-.76-.62-1.28-.03-.08-.04-.18-.02-.28.03-.13.11-.23.19-.28.03,0,.06-.01.08-.01.08,0,.12.01.17.04.08.05.12.13.17.24l.06.14c.17.39.37.74.61,1.09.2.27.4.53.62.76l-.13-.22c-.44-.95-.74-2.07-.87-3.24-.02-.14.01-.28.08-.39.07-.11.16-.18.27-.19.22-.02.41.2.45.51.01.14.03.29.05.42.07.34.16.66.29,1.02.1.24.22.47.34.69.07.12.14.24.21.35-.26-.88-.41-1.81-.46-2.75,0-.1,0-.19.03-.27-.01-.3.11-.66.36-.75.13-.05.26-.1.39-.16.14-.06.29-.1.44-.14l.13-.03c.4-.11.82-.14,1.22-.18"/>
        <path class="cls-17" d="M509.59,247.71l.12-.11.12-.11c.03-.09.06-.19.08-.29.05-.19.12-.36.2-.51.12-.28.29-.54.44-.79l.07-.12c.35-.56.73-1.08,1.16-1.6.91-1.07,1.94-1.94,2.82-2.65.42-.34.86-.67,1.29-.99l.2-.15.51-.4c.28-.22.55-.44.83-.64.8-.6,1.67-1.14,2.76-1.7,2.14-1.13,4.31-1.89,6.46-2.27,1.03-.18,1.96-.26,2.82-.22,1.15.04,2.21.27,3.15.69.17.08.28.27.31.5.03.07.05.13.06.21.15.99.18,1.92.13,2.8.06-.14.14-.26.19-.41.12-.4.22-.8.29-1.22.04-.37.06-.74.04-1.12h0s0,0,0,0h0s0-.08,0-.11v.04s0-.07,0-.1c-.02-.23.05-.45.23-.51.02,0,.05-.01.07,0,.14,0,.28.13.3.32.04.53.06,1.07.08,1.6.01.47-.01.94-.05,1.41.08-.16.17-.33.24-.5.07-.23.12-.46.17-.7,0-.03,0-.06.01-.1.02-.15.04-.26.12-.36.08-.1.18-.14.28-.14.1,0,.2.06.26.16.06.09.11.24.1.37-.02.19-.04.37-.08.55-.04.28-.12.54-.19.8-.15.49-.35.94-.6,1.33-.1.17-.2.32-.32.47-.14.19-.31.34-.47.5-.12.12-.26.21-.4.29-.09.12-.16.26-.26.35-.19.19-.4.31-.63.4-.11.04-.22.02-.33-.03-.04.02-.07.03-.11.03-1.03-.12-2.04-.21-3.03-.24-1.93-.07-3.83.02-5.67.28-1.57.24-3.1.59-4.56,1.07-1.49.48-3.06,1.15-4.66,1.99-.66.35-1.4.79-2.11,1.24-.73.46-1.43,1.03-2.1,1.58-.05.04-.11.06-.17.06-.13,0-.25-.1-.3-.25-.04-.1-.05-.23-.02-.37.03-.13.09-.2.17-.28"/>
        <path d="M533.64,236.58s0-.05,0-.07c0,.02,0,.05,0,.07h0Z"/>
        <path class="cls-15" d="M588.13,205.11v16.98l-7.26,17.4-.46-4.75-1.39-14.62-25.01-5.81-13.78,4.34-17.32-3.62-18.95,9.61-.75,15.13-.28,5.45-6.77-18.41.02-24.6,20.83-19.65,47.17-1.08s12.11,6.99,14.33,9.6c3.1,3.67,9.61,14.04,9.61,14.04"/>
        <path class="cls-17" d="M588.13,205.11v16.98l-7.26,17.4-.46-4.75-1.39-14.62-25.01-5.81-13.78,4.34-17.32-3.62-18.95,9.61-.75,15.13-.28,5.45-6.77-18.41.02-24.6,20.83-19.65,47.17-1.08s12.11,6.99,14.33,9.6c3.1,3.67,9.61,14.04,9.61,14.04"/>
        <rect class="cls-4" x="496.17" y="181.48" width="91.96" height="63.74"/>
        <path class="cls-13" d="M534.54,279.03c1.02.14,2.03.2,3.04.24,1.01.03,2.01.03,3.01-.02,2-.09,3.97-.35,5.92-.79,1.95-.43,3.86-1.05,5.74-1.82,1.88-.78,3.7-1.73,5.55-2.77-1.5,1.6-3.24,2.9-5.1,3.95-1.87,1.03-3.86,1.8-5.91,2.24-2.04.46-4.14.61-6.21.46-1.04-.08-2.07-.23-3.08-.47-.5-.12-1.01-.26-1.5-.43-.49-.17-.98-.36-1.45-.6"/>
        <path class="cls-17" d="M544.76,282.03c2.07-.27,4.97-.78,2.94.47-2.03,1.26-3.88,1.02-5.09.54-1.21-.48.08-.74,2.15-1.01"/>
        <path class="cls-15" d="M581.52,243.97l1.52-3.77c.49-1.22,2.26-1.13,2.61.14,1.32,4.81,3.2,12.78,2.19,15.75-.8,2.35-3.34,5.25-5.51,7.43-1.15,1.16-3.12.21-2.93-1.41l2.12-18.15Z"/>
        <path class="cls-15" d="M501.58,243.97l-1.52-3.77c-.49-1.22-2.26-1.13-2.61.14-1.32,4.81-3.2,12.78-2.19,15.75.8,2.35,3.34,5.25,5.51,7.43,1.15,1.16,3.12.21,2.93-1.41l-2.12-18.15Z"/>
      </g>
      <rect class="cls-4" width="1080" height="1080"/>
      <rect class="cls-4" width="1080" height="1080"/>
    </g>
  </g>
</svg>