<?xml version="1.0" encoding="UTF-8"?>
<svg xmlns="http://www.w3.org/2000/svg" xmlns:xlink="http://www.w3.org/1999/xlink" viewBox="0 0 1080 1080">
  <defs>
    <style>
      .cls-1 {
        fill: #fda287;
      }

      .cls-2 {
        fill: #fcfcfc;
      }

      .cls-3, .cls-4 {
        opacity: .3;
      }

      .cls-5 {
        stroke-width: 5.31px;
      }

      .cls-5, .cls-6, .cls-7 {
        fill: none;
        stroke-miterlimit: 10;
      }

      .cls-5, .cls-7 {
        stroke: #f6604b;
      }

      .cls-8 {
        isolation: isolate;
      }

      .cls-9 {
        opacity: .66;
      }

      .cls-10 {
        opacity: .2;
      }

      .cls-10, .cls-4 {
        mix-blend-mode: multiply;
      }

      .cls-11 {
        fill: #cf8470;
      }

      .cls-6 {
        stroke: url(#linear-gradient);
        stroke-width: 5.46px;
      }

      .cls-12 {
        fill: #f6604b;
      }

      .cls-13 {
        fill: #ffcca2;
      }

      .cls-7 {
        stroke-width: 8.07px;
      }

      .cls-14 {
        opacity: .08;
      }
    </style>
    <linearGradient id="linear-gradient" x1="320.57" y1="782.33" x2="759.43" y2="343.47" gradientUnits="userSpaceOnUse">
      <stop offset=".11" stop-color="#763ca8"/>
      <stop offset=".99" stop-color="#f6604b"/>
    </linearGradient>
  </defs>
  <g class="cls-8">
    <g id="Layer_1" data-name="Layer 1">
      <g>
        <path class="cls-13" d="M476.34,473.77c-1.89-5.83-1.61-11.99.39-17.73-1.36,5.14-1.39,10.54.24,15.67,4.8,15.12,21.96,22.18,38.33,15.78,12.88-5.04,21.4-16.93,22.12-29.13.33,12.89-8.49,25.86-22.32,31.15-16.52,6.32-33.87-.72-38.75-15.73Z"/>
        <path class="cls-13" d="M604.6,456.04c1.36,5.14,1.39,10.54-.24,15.67-4.8,15.12-21.96,22.18-38.33,15.78-12.88-5.04-21.4-16.93-22.12-29.13-.33,12.89,8.49,25.86,22.32,31.15,16.52,6.32,33.87-.72,38.75-15.73,1.89-5.83,1.61-11.99-.39-17.73Z"/>
        <path class="cls-13" d="M604.6,456.04c-3.27-7.45-5.72-15.81-9.49-23,0,0-.28-.49-.28-.49,1.33-1.69,2.44-3.65,3.34-5.62.85-1.86,1.52-3.8,2.02-5.84-.04,2.09-.38,4.2-1.03,6.22-.66,2.06-1.52,3.97-2.75,5.79,0,0,.04-.91.04-.91,4.3,7.32,6.47,15.6,8.15,23.85h0Z"/>
        <path class="cls-13" d="M476.74,456.04c1.68-8.25,3.85-16.53,8.15-23.85,0,0,.04.91.04.91-1.23-1.82-2.1-3.73-2.75-5.79-.65-2.02-.99-4.13-1.03-6.22.5,2.03,1.17,3.98,2.02,5.84.9,1.98,2.02,3.94,3.34,5.62l-.28.49c-3.77,7.19-6.22,15.55-9.49,23h0Z"/>
        <polygon class="cls-6" points="710.02 825.13 540 825.13 369.98 825.13 464.03 562.9 369.98 300.68 540 300.68 710.02 300.68 615.97 562.9 710.02 825.13"/>
        <path class="cls-13" d="M558.19,233.92c-4.21-8.23-12.9-11.71-20.83-10.99-7.94.72-15.34,4.9-22.53,9.06-13.21,7.63-27.76,17.35-31.54,34.56-.9,4.1-1.12,8.46-2.62,12.29-2.52,6.43-8.07,10.1-12.23,15.12-7.79,9.41-10.45,24.58-6.51,37.05-8.03,6.84-16.44,14.72-19.18,26.19-2.74,11.46,3.85,26.58,13.61,25.47-6.1,10.19-2.05,25.71,6.26,33.22,8.32,7.51,19.38,8.69,29.71,7.85.54,7.86,6.7,13.58,12.96,15.61,6.26,2.04,12.87,1.45,19.29,2.53,7.9,1.33,15.43,5.17,23.36,6.15,7.93.98,17.04-1.82,20.94-10.3,15.27,9.24,36.42-3.82,39.33-24.3,10.8-1.75,18.34-17.57,14.24-29.87,9.56-10.45,9.12-31.45-.87-41.29,7.7-12.63,6.82-31.94-2-43.44-2.81-3.67-6.32-6.63-8.47-10.92-2.33-4.65-2.79-10.3-4.25-15.45-3.41-11.97-12.88-21.03-23.24-22.21-5.27-12.64-17.4-19.23-29.03-19.23l3.62,2.9Z"/>
        <path class="cls-4" d="M558.19,233.92c-4.21-8.23-12.9-11.71-20.83-10.99-7.94.72-15.34,4.9-22.53,9.06-13.21,7.63-27.76,17.35-31.54,34.56-.9,4.1-1.12,8.46-2.62,12.29-2.52,6.43-8.07,10.1-12.23,15.12-7.79,9.41-10.45,24.58-6.51,37.05-8.03,6.84-16.44,14.72-19.18,26.19-2.74,11.46,3.85,26.58,13.61,25.47-6.1,10.19-2.05,25.71,6.26,33.22,8.32,7.51,19.38,8.69,29.71,7.85.54,7.86,6.7,13.58,12.96,15.61,6.26,2.04,12.87,1.45,19.29,2.53,7.9,1.33,15.43,5.17,23.36,6.15,7.93.98,17.04-1.82,20.94-10.3,15.27,9.24,36.42-3.82,39.33-24.3,10.8-1.75,18.34-17.57,14.24-29.87,9.56-10.45,9.12-31.45-.87-41.29,7.7-12.63,6.82-31.94-2-43.44-2.81-3.67-6.32-6.63-8.47-10.92-2.33-4.65-2.79-10.3-4.25-15.45-3.41-11.97-12.88-21.03-23.24-22.21-5.27-12.64-17.4-19.23-29.03-19.23l3.62,2.9Z"/>
        <path class="cls-13" d="M606.38,562.19l9.6,21.83h16.2s3.6-61.04-2.7-73.45c0-24.81-3.6-96.29-3.6-96.29,0,0,.25-1.41-.07-3.74-.72-5.21-4.32-15.03-20.15-23.97l-43.85-25.08c-1.49-.92-2.5-2.43-2.78-4.12-.07-.33-.1-.67-.1-1.04v-22.13h-37.84v22.13c0,2.11-1.11,4.05-2.88,5.16l-37.94,21.26c-.79.45-1.57,1.06-2.33,1.77v-.02c-1.4.69-2.71,1.37-3.95,2.08-15.83,8.95-19.43,18.76-20.15,23.97-.32,2.33-.07,3.74-.07,3.74,0,0-3.6,71.48-3.6,96.29-6.3,12.41-2.7,73.45-2.7,73.45h16.2l9.6-21.83c9.58-21.84,1.64-41.69.3-46.65-1.36-4.98,2.24-47.15,2.24-47.15l.08-.14c.61,3.14,1.33,7.08,1.21,7.57-.2.84,8.75,10.82,9.02,11.01l13.99,35.38s-.19.5-.53,1.38c-2.64,6.84-14.59,28.17-21.69,41.96-.55,1.04-1.04,1.99-1.52,2.82-5.39,9.41-19.76,29.7-14.33,83.38,2.26,22.28,7.93,50.31,19.07,85.69,15.19,47.49,18.99,57,18.99,57,0,0-14.25,23.74,6.65,98.78,4.74,44.64,9.49,75.99,9.49,75.99l-27.7,29.44s-11.24-.96-12.18,5.69h61.72v-349.22c1.3.4,2.6.35,3.8-.03v349.25h61.74c-.95-6.65-12.18-5.69-12.18-5.69l-27.71-29.44s4.76-31.35,9.5-75.99c20.9-75.04,6.65-98.78,6.65-98.78,0,0,3.8-9.5,18.99-57,11.06-35.13,16.73-63.01,19.03-85.21,5.56-54.03-8.9-74.43-14.28-83.86-.47-.83-.98-1.76-1.52-2.8v-.02c-7.1-13.78-19.04-35.11-21.69-41.96-.34-.88-.53-1.38-.53-1.38l13.26-35.38h0c6.26-4.88,9.85-10.45,11.16-12.74.93,11.69,2.82,37.61,1.78,41.45-1.34,4.96-9.28,24.81.3,46.65Z"/>
        <path class="cls-10" d="M566.69,387.74c6.31-.05,12.76-.21,18.85-1.92-12.4-1.69-25.21,1.18-37.71,2.04,5.48.59,12.79-.17,18.86-.12Z"/>
        <path class="cls-10" d="M513.14,386.19c-6.32-.72-12.8-1.36-19.1-.41,12.21,3.19,25.39,1.91,38,2.59-5.42-1.26-12.82-1.39-18.9-2.19Z"/>
        <path class="cls-10" d="M551.32,637.72c-2.98,4.14-4.56,9.67-7.36,13.73-2.06,2.4-5.84,2.39-7.91,0-2.8-4.06-4.38-9.59-7.36-13.73-3.77-6-8.35-11.51-13.73-16.05,4.83,5.12,9.02,10.76,12.46,16.81,2.9,4.51,4.24,9.83,7.27,14.21,5.16,5.42,11.52,1.34,13.23-4.88,4.18-9.62,9.86-18.5,17.13-26.14-5.39,4.54-9.96,10.05-13.73,16.05Z"/>
        <g class="cls-10">
          <path d="M540.06,534.53c-1.94-6.43.36-14.36,7.86-15.36,2.86-.45,6.62.08,9.47.18,0,0,4.64.3,4.64.3,1.55.09,3.1.25,4.65.19-3.04.77-6.21.76-9.33.88-3.01.16-6.23-.25-9.15.19-6.63.75-8.5,7.79-8.14,13.61h0Z"/>
        </g>
        <g class="cls-10">
          <path d="M540.06,518.24c-1.94-6.43.36-14.36,7.86-15.36,2.86-.45,6.62.08,9.47.18,0,0,4.64.3,4.64.3,1.55.09,3.1.25,4.65.19-3.04.77-6.21.76-9.33.88-3.01.16-6.23-.25-9.15.19-6.63.75-8.5,7.79-8.14,13.61h0Z"/>
        </g>
        <g class="cls-10">
          <path d="M537.42,506.5c-6.63-3.23-14.19-3.06-21.29-4.72,6.41-.97,16.73-.42,21.29,4.72h0Z"/>
        </g>
        <g class="cls-10">
          <path d="M537.42,522.2c-6.63-3.23-14.19-3.06-21.29-4.72,6.41-.97,16.73-.42,21.29,4.72h0Z"/>
        </g>
        <g>
          <path class="cls-10" d="M476.34,473.77c-1.89-5.83-1.61-11.99.39-17.73-1.36,5.14-1.39,10.54.24,15.67,4.8,15.12,21.96,22.18,38.33,15.78,12.88-5.04,21.4-16.93,22.12-29.13.33,12.89-8.49,25.86-22.32,31.15-16.52,6.32-33.87-.72-38.75-15.73Z"/>
          <path class="cls-10" d="M604.6,456.04c1.36,5.14,1.39,10.54-.24,15.67-4.8,15.12-21.96,22.18-38.33,15.78-12.88-5.04-21.4-16.93-22.12-29.13-.33,12.89,8.49,25.86,22.32,31.15,16.52,6.32,33.87-.72,38.75-15.73,1.89-5.83,1.61-11.99-.39-17.73Z"/>
          <g class="cls-10">
            <path d="M604.6,456.04c-3.27-7.45-5.72-15.81-9.49-23,0,0-.28-.49-.28-.49,1.33-1.69,2.44-3.65,3.34-5.62.85-1.86,1.52-3.8,2.02-5.84-.04,2.09-.38,4.2-1.03,6.22-.66,2.06-1.52,3.97-2.75,5.79,0,0,.04-.91.04-.91,4.3,7.32,6.47,15.6,8.15,23.85h0Z"/>
          </g>
          <g class="cls-10">
            <path d="M476.74,456.04c1.68-8.25,3.85-16.53,8.15-23.85,0,0,.04.91.04.91-1.23-1.82-2.1-3.73-2.75-5.79-.65-2.02-.99-4.13-1.03-6.22.5,2.03,1.17,3.98,2.02,5.84.9,1.98,2.02,3.94,3.34,5.62l-.28.49c-3.77,7.19-6.22,15.55-9.49,23h0Z"/>
          </g>
        </g>
        <path class="cls-4" d="M541.46,573.67c1.75,0,3.17-1.58,3.17-3.53s-1.42-3.53-3.17-3.53-3.17,1.58-3.17,3.53,1.42,3.53,3.17,3.53Z"/>
        <g class="cls-10">
          <path d="M500.11,813.85c6.85,9.27,15.77,17.26,26.87,8.78-9.68,11.02-22.27,2.17-26.87-8.78h0Z"/>
        </g>
        <g class="cls-10">
          <path d="M579.86,813.85c-4.6,10.97-17.2,19.8-26.87,8.78,11.11,8.47,20.03.48,26.87-8.78h0Z"/>
        </g>
        <path class="cls-14" d="M558.92,332.43v10.49c-10.15,10.82-20.28,15.95-29.43,6.81-2.6-2.58-5.52-5.85-8.42-9.57v-7.73h37.84Z"/>
        <path class="cls-13" d="M574.75,292.11s.72,36.74-27.78,53.93c-.6.37-1.31.55-2.01.55h-8.88c-.7,0-1.41-.18-2.02-.55-28.49-17.19-27.76-53.93-27.76-53.93,0,0-1.84-11.03,0-20.97,5.52-28.7,32.02-14.11,32.02-14.11l2.21,1.24,2.21-1.24s26.5-14.59,32.02,14.11c1.84,9.94,0,20.97,0,20.97Z"/>
        <g class="cls-4">
          <path d="M523.67,355.97c1.85,5.9,4.08,11.65,5.82,17.63,1.26,4.33,2.29,8.91,5.56,12.08,2.04,2.05,4.94,2.51,7.27.67,3.6-2.77,4.85-7.33,6.47-11.51,2.14-5.8,4.4-11.56,6.77-17.27-1.69,5.96-3.49,11.87-5.41,17.74-1.46,4.36-2.85,9.46-6.79,12.44-4.79,3.79-10.22-.1-12.29-4.85-1.41-2.9-2.06-6-2.75-9-1.44-5.96-3.34-11.89-4.64-17.93h0Z"/>
        </g>
        <path class="cls-3" d="M545.19,311.72c-.09-.09-.22-.14-.35-.14-.06,0-.13.01-.19.04-.1-.02-.19,0-.29.04-.03.01-.05.02-.08.04-.79.31-1.61.5-2.44.62-1.08.14-2.16.15-3.24.02-.11-.02-.23-.03-.34-.05-.04-.02-.09-.03-.13-.05-.04-.02-.09-.04-.13-.06-.1-.05-.21-.07-.32-.04-.02,0-.03.01-.05.02-.4-.1-.79-.22-1.17-.38-.12-.05-.23-.1-.34-.16-.05-.02-.09-.03-.14-.03-.09,0-.18.04-.23.13-.07.11-.03.27.07.34,0,.08.02.16.08.23.58.59,1.26,1.06,2.01,1.39.8.35,1.66.54,2.53.58.44.02.88-.02,1.32-.08.44-.06.86-.17,1.27-.33.82-.31,1.57-.79,2.17-1.44.18-.2.2-.5,0-.7ZM537.43,312.73c-.05-.03-.1-.06-.15-.09.04.01.07.03.11.04,0,.02.03.03.04.05Z"/>
        <path class="cls-13" d="M565.84,277.55c4.8.08,9.28-3.17,9.44-7.2,3.61.43,5.96-2.73,6.98-5.55,2-5.52,2.34-11.89-1.24-17.15-3.58-5.26-11.95-8.66-18.13-6.14-10.72-6.89-27.75-4.44-33.86,4.88-9.65-1.65-18.33,3.91-24.37,9.92-3.43,3.42-6.58,7.28-7.25,11.8-.67,4.52,1.81,9.81,6.94,11.83,4.04,1.59,8.85.81,12.26-1.25,3.41-2.07,5.61-5.24,7.16-8.53,3.56.71,7.41-1.02,8.49-3.83,9.95,4.5,14.61-2.41,21.31-5.97.82,5.44,2.78,15.64,10.66,17.05.54.1,1.08.15,1.62.16Z"/>
        <path class="cls-4" d="M565.84,277.55c4.8.08,9.28-3.17,9.44-7.2,3.61.43,5.96-2.73,6.98-5.55,2-5.52,2.34-11.89-1.24-17.15-3.58-5.26-11.95-8.66-18.13-6.14-10.72-6.89-27.75-4.44-33.86,4.88-9.65-1.65-18.33,3.91-24.37,9.92-3.43,3.42-6.58,7.28-7.25,11.8-.67,4.52,1.81,9.81,6.94,11.83,4.04,1.59,8.85.81,12.26-1.25,3.41-2.07,5.61-5.24,7.16-8.53,3.56.71,7.41-1.02,8.49-3.83,9.95,4.5,14.61-2.41,21.31-5.97.82,5.44,2.78,15.64,10.66,17.05.54.1,1.08.15,1.62.16Z"/>
        <path class="cls-1" d="M550.65,326.85c-2.69-.5-5.41-3.61-8.22-3.18-.69.1-.87.38-1.38.73-.8.55-1.11-.19-1.74-.5-1.38-.68-3.27.14-4.52.82-1.42.78-2.92,1.88-4.55,2.16-.14.02-.47-.02-.34.26.1.21.4.58.55.78,1.4,1.84,3.94,4.45,6.07,5.37,2.09.9,5.18.94,7.33.24,1.71-.56,3.06-1.69,4.33-2.91.92-.89,1.89-1.93,2.64-2.98.07-.1.36-.49.36-.58,0-.21-.36-.17-.52-.2Z"/>
        <path class="cls-11" d="M552.95,325.06s-.06.02-.09.04c0,0,.01,0,.02,0-.8.33-1.62.61-2.44.88-.81.27-1.61.53-2.43.76-1.23.34-2.48.58-3.74.75-3.13.41-6.32.43-9.44.02.05,0,.1.01.15.02-2.08-.29-4.13-.74-6.08-1.54.01,0,.02,0,.03.02-.03-.01-.06-.03-.09-.04,0,0-.01,0-.02,0,0,0,0,0,.01,0-.31-.13-.61-.28-.91-.43-.22-.11-.48-.06-.6.16-.11.2-.05.49.16.6,3.9,1.94,8.29,2.73,12.61,2.89,2.16.08,4.35-.08,6.48-.48,1.11-.21,2.19-.52,3.24-.93.6-.22,1.19-.49,1.76-.77.65-.32,1.28-.67,1.92-1,.27-.13.34-.5.2-.74-.07-.12-.19-.21-.33-.25-.05-.01-.09-.02-.14-.02-.1,0-.19.03-.28.08h0ZM528.85,325.95s.04.02.06.02c-.02,0-.04-.02-.07-.03,0,0,0,0,0,0h0Z"/>
        <path class="cls-13" d="M624.48,617.97s-2.03,49.91-7.27,70.08c-5.24,20.17,13.1-8.38,13.1-8.38,0,0,8.65-10.48,5.76-24.63-2.88-14.15-6.6-26.82-4.74-36.86l-6.85-.21Z"/>
        <path class="cls-13" d="M455.16,618.19s2.03,49.91,7.27,70.08-13.1-8.38-13.1-8.38c0,0-8.65-10.48-5.76-24.63,2.88-14.15,6.6-26.82,4.74-36.86l6.85-.21Z"/>
        <path class="cls-13" d="M575.46,294.37l.8-1.99c.26-.65,1.19-.6,1.38.08.69,2.54,1.69,6.75,1.16,8.31-.42,1.24-1.76,2.77-2.91,3.92-.61.61-1.64.11-1.54-.74l1.12-9.58Z"/>
        <path class="cls-13" d="M505.41,294.37l-.8-1.99c-.26-.65-1.19-.6-1.38.08-.69,2.54-1.69,6.75-1.16,8.31.42,1.24,1.76,2.77,2.91,3.92.61.61,1.64.11,1.54-.74l-1.12-9.58Z"/>
        <path class="cls-13" d="M455.16,618.19s4.1-24.15,8.5-34.17h-16.2s.84,34.39.84,34.39l6.85-.21Z"/>
        <path class="cls-13" d="M624.5,618.19s-4.1-24.15-8.5-34.17h16.2l-.84,34.39-6.85-.21Z"/>
        <g>
          <g>
            <line class="cls-7" x1="541.9" y1="250.08" x2="541.9" y2="205.39"/>
            <polygon class="cls-12" points="554.77 209.16 541.9 186.86 529.02 209.16 554.77 209.16"/>
          </g>
          <g>
            <line class="cls-7" x1="642.78" y1="412.74" x2="696.06" y2="412.74"/>
            <polygon class="cls-12" points="692.29 425.62 714.59 412.74 692.29 399.87 692.29 425.62"/>
          </g>
          <g>
            <line class="cls-7" x1="440.95" y1="412.74" x2="383.94" y2="412.74"/>
            <polygon class="cls-12" points="387.71 399.87 365.41 412.74 387.71 425.62 387.71 399.87"/>
          </g>
          <g>
            <path class="cls-7" d="M513.94,660.63s-9.49,23.22-7.44,58.64"/>
            <polygon class="cls-12" points="493.49 716.8 508.54 737.69 519.11 714.21 493.49 716.8"/>
          </g>
          <g>
            <path class="cls-7" d="M568.08,660.63s9.49,23.22,7.44,58.64"/>
            <polygon class="cls-12" points="562.9 714.21 573.48 737.69 588.53 716.8 562.9 714.21"/>
          </g>
          <g>
            <path class="cls-5" d="M541.79,601.02c-8.52,0-15.43,6.91-15.43,15.43s6.91,15.43,15.43,15.43,15.43-6.91,15.43-15.43"/>
            <polygon class="cls-12" points="539.47 593.08 553.22 601.02 539.47 608.96 539.47 593.08"/>
          </g>
          <g>
            <path class="cls-7" d="M515.64,420c0,12.95,10.5,23.45,23.45,23.45s23.45-10.5,23.45-23.45-10.5-23.45-23.45-23.45"/>
            <polygon class="cls-12" points="503.57 423.54 515.64 402.63 527.71 423.54 503.57 423.54"/>
          </g>
          <g>
            <path class="cls-7" d="M438.08,660.61s-15.12,17.59-38.7,20.54"/>
            <polygon class="cls-12" points="403.39 667.81 380.85 680.27 402.91 693.56 403.39 667.81"/>
          </g>
          <g>
            <path class="cls-7" d="M637.24,649.27s12.63,19.46,35.61,25.53"/>
            <polygon class="cls-12" points="667.69 686.62 691.33 676.39 670.65 661.04 667.69 686.62"/>
          </g>
        </g>
        <g>
          <path class="cls-4" d="M536.04,281.17s-.08-.01-.12-.01c-.2,0-.39.1-.44.24-.06.2-.14.38-.24.57-.12.19-.27.35-.42.53.03-.11.08-.22.1-.34.05-.27.07-.53.06-.8,0-.15-.17-.28-.38-.28s-.39.13-.38.28c0,.18,0,.35-.03.52-.05.22-.13.43-.22.63,0-.05,0-.1-.02-.15-.02-.08-.04-.16-.08-.24,0,0,0,0,0,0-.04-.22-.09-.45-.18-.66-.03-.08-.11-.13-.2-.17-.09-.13-.24-.24-.44-.27-.93-.16-1.91-.19-2.85-.22-.37,0-.73-.01-1.09-.01-.55,0-1.1,0-1.65.03-1.83.05-3.77.21-5.79.48-3.81.51-7.44,1.42-10.8,2.72-.07.03-.13.08-.15.15-.02.07-.01.14.03.19.02.03.05.05.1.08.05.09.16.15.28.15,1.84-.1,3.69-.16,5.47-.22,1.83-.06,3.66-.11,5.49-.15,1.1-.02,2.2-.03,3.31-.03.73,0,1.46,0,2.19.01.95.01,1.9.03,2.84.05h.65s.65.02.65.02c.22,0,.44,0,.66,0h.22s.22,0,.22,0c.05,0,.11,0,.16,0,.02,0,.05,0,.07,0,.09,0,.16,0,.22-.02.17.11.42.14.62.05.33-.14.64-.3.92-.5.27-.19.5-.42.7-.64.2-.23.35-.49.49-.74.15-.26.26-.54.34-.82.06-.18-.07-.36-.31-.41Z"/>
          <path class="cls-2" d="M522.35,294.11h0s-.16.01-.16.01c-.89.13-1.6.3-2.24.56-.45.2-.85.42-1.21.68-.25.19-.48.41-.67.64-.18.23-.32.47-.44.72-.07.16-.12.3-.17.44l-.02.09s-.02.09-.02.09c-.02.14-.02.27,0,.41.03.18.07.33.12.47.07.16.17.33.28.49.18.23.39.44.64.64.47.37,1.04.7,1.77,1.03.61.27,1.3.51,2.03.73-.29-.32-.51-.6-.66-.87-.16-.3-.29-.62-.37-.94l-.03-.11c-.06-.15-.1-.31-.14-.47-.12-.54-.16-1.04-.13-1.49.04-.48.14-.9.29-1.29.05-.19.11-.38.18-.56.13-.28.27-.52.44-.72.15-.19.31-.36.49-.52v-.03h0Z"/>
          <path class="cls-2" d="M529.83,295.3h0s0,0,0,0h0c.57.97.79,2.19.61,3.39-.12.84-.45,1.62-.94,2.24-.1.13-.22.25-.34.37.62-.11,1.19-.28,1.75-.5.52-.22.97-.47,1.36-.75.22-.18.41-.36.59-.57.15-.2.27-.41.4-.67-.11-.1-.19-.19-.26-.3l-.05-.13c-.2-.36-.43-.73-.68-1.09-.37-.48-.76-.88-1.17-1.23-.37-.28-.78-.53-1.25-.77,0,0,0,0-.01,0h0Z"/>
          <path class="cls-9" d="M525.03,293.1c-.29.02-.59.07-.9.15-.28.07-.57.17-.93.33-.24.11-.49.26-.75.46-.03.03-.07.06-.11.09v.02c-.18.16-.34.33-.49.52-.17.21-.32.44-.44.72-.08.18-.14.37-.18.56-.16.38-.25.81-.29,1.29-.04.45,0,.95.12,1.49.04.16.09.32.14.47l.03.11c.08.33.2.65.37.95.12.22.29.45.51.7.1.11.21.21.33.31.62.52,1.43.88,2.39,1.07.36.07.72.1,1.07.11.53,0,1.06-.05,1.56-.18.65-.17,1.24-.5,1.71-.95-.01,0-.02,0-.03,0,.12-.12.24-.24.34-.37.5-.62.82-1.39.94-2.24.18-1.16-.03-2.34-.55-3.3-.05-.09-.1-.17-.16-.26-.62-.92-1.68-1.62-2.93-1.91-.38-.09-.78-.14-1.19-.14-.19,0-.38,0-.57.02h0Z"/>
          <path class="cls-2" d="M529.14,298.6c.13.24.45.34.69.21.25-.14.5-.28.77-.4.13-.06.25-.13.37-.21.08-.06.17-.12.25-.18.07-.08.13-.16.2-.24.06-.1.1-.21.1-.33,0-.17-.06-.33-.17-.45-.08-.08-.18-.14-.29-.18-.15-.04-.36-.04-.49.05-.08.06-.17.12-.25.18-.07.07-.14.14-.2.21-.15.17-.31.33-.48.48-.09.06-.19.12-.29.18-.12.07-.21.18-.25.31-.04.12-.03.26.04.38h0Z"/>
          <path class="cls-4" d="M518.16,299.94c.56.46,1.17.86,1.83,1.19.68.35,1.4.63,2.12.86.62.2,1.25.36,1.89.48.48.09.96.14,1.45.15.63.02,1.26,0,1.89-.04.77-.05,1.53-.14,2.29-.26.6-.1,1.19-.24,1.77-.42.58-.18,1.15-.42,1.66-.75.47-.31.89-.69,1.18-1.18.16-.27.25-.56.28-.88.03-.24.03-.48.03-.72.06-.16.08-.35.02-.5-.05-.13-.08-.26-.13-.38-.05-.16-.12-.32-.19-.47-.11-.26-.26-.49-.43-.72-.37-.53-.82-.99-1.32-1.4-.4-.32-.81-.62-1.26-.88-.32-.18-.67-.33-1.01-.47-.65-.27-1.34-.45-2.03-.58-.81-.16-1.64-.26-2.46-.3-.19,0-.37-.01-.56-.02-.62,0-1.25.01-1.87.08-.28.03-.57.08-.85.13,0,0,0,0,0,0,0,0-.1.02-.26.04-.04,0-.07.01-.11.02-.46.08-.93.25-1.86.49-.83-.31-1.62-.51-3.01-2.17,0,0,.19,1.51,1.45,2.54,0,0,0,0,0,0-.36-.05-1.97-.46-3.19-1.97,0,0,.14,2.06,1.27,2.88-.98-.07-2.71-1.87-2.71-1.87,0,0,1.27,4.79,4.12,7.12ZM532.85,299.48c-.18.2-.37.39-.59.57-.4.28-.84.52-1.36.75-.45.18-.9.32-1.37.43-.62.16-1.24.27-1.87.35-.62.07-1.25.11-1.88.12-.44,0-.89-.02-1.33-.08-.62-.1-1.24-.25-1.85-.41-.12-.03-.24-.07-.36-.1,0,0,.02.01.02.02-.74-.22-1.42-.46-2.03-.73-.73-.33-1.3-.66-1.77-1.03-.25-.2-.45-.42-.64-.64-.11-.16-.21-.33-.28-.5-.06-.15-.09-.3-.12-.47,0-.14,0-.27,0-.41l.02-.08h0s0,0,0,0c0,0,.02-.09.02-.09.05-.14.1-.28.17-.44.12-.25.26-.49.44-.72.19-.23.42-.45.67-.64.36-.26.76-.48,1.21-.68.64-.25,1.35-.43,2.24-.56h.16s0-.01,0-.01v.02c1.19-.12,2.4-.08,3.59.08.02,0,.05,0,.07.01,1.26.2,2.5.52,3.68,1.03.05.02.1.05.14.07,0,0,0-.01-.01-.02h0s.01,0,.01,0c.47.23.88.48,1.25.76.42.35.8.75,1.17,1.23.25.36.48.73.68,1.09l.05.13c.07.1.15.19.25.29,0,0,0,0,0,0,0,0,0,0,.01.01-.13.26-.26.47-.4.67Z"/>
        </g>
        <g>
          <path class="cls-4" d="M544.9,281.17s.08-.01.12-.01c.2,0,.39.1.44.24.06.2.14.38.24.57.12.19.27.35.42.53-.03-.11-.08-.22-.1-.34-.05-.27-.07-.53-.06-.8,0-.15.17-.28.38-.28s.39.13.38.28c0,.18,0,.35.03.52.05.22.13.43.22.63,0-.05,0-.1.02-.15.02-.08.04-.16.08-.24,0,0,0,0,0,0,.04-.22.09-.45.18-.66.03-.08.11-.13.2-.17.09-.13.24-.24.44-.27.93-.16,1.91-.19,2.85-.22.37,0,.73-.01,1.09-.01.55,0,1.1,0,1.65.03,1.83.05,3.77.21,5.79.48,3.81.51,7.44,1.42,10.8,2.72.07.03.13.08.15.15.02.07.01.14-.03.19-.02.03-.05.05-.1.08-.05.09-.16.15-.28.15-1.84-.1-3.69-.16-5.47-.22-1.83-.06-3.66-.11-5.49-.15-1.1-.02-2.2-.03-3.31-.03-.73,0-1.46,0-2.19.01-.95.01-1.9.03-2.84.05h-.65s-.65.02-.65.02c-.22,0-.44,0-.66,0h-.22s-.22,0-.22,0c-.05,0-.11,0-.16,0-.02,0-.05,0-.07,0-.09,0-.16,0-.22-.02-.17.11-.42.14-.62.05-.33-.14-.64-.3-.92-.5-.27-.19-.5-.42-.7-.64-.2-.23-.35-.49-.49-.74-.15-.26-.26-.54-.34-.82-.06-.18.07-.36.31-.41Z"/>
          <path class="cls-2" d="M558.59,294.11h0s.16.01.16.01c.89.13,1.6.3,2.24.56.45.2.85.42,1.21.68.25.19.48.41.67.64.18.23.32.47.44.72.07.16.12.3.17.44l.02.09s.02.09.02.09c.02.14.02.27,0,.41-.03.18-.07.33-.12.47-.07.16-.17.33-.28.49-.18.23-.39.44-.64.64-.47.37-1.04.7-1.77,1.03-.61.27-1.3.51-2.03.73.29-.32.51-.6.66-.87.16-.3.29-.62.37-.94l.03-.11c.06-.15.1-.31.14-.47.12-.54.16-1.04.13-1.49-.04-.48-.14-.9-.29-1.29-.05-.19-.11-.38-.18-.56-.13-.28-.27-.52-.44-.72-.15-.19-.31-.36-.49-.52v-.03h0Z"/>
          <path class="cls-2" d="M551.12,295.3h0s0,0,0,0h0c-.57.97-.79,2.19-.61,3.39.12.84.45,1.62.94,2.24.1.13.22.25.34.37-.62-.11-1.19-.28-1.75-.5-.52-.22-.97-.47-1.36-.75-.22-.18-.41-.36-.59-.57-.15-.2-.27-.41-.4-.67.11-.1.19-.19.26-.3l.05-.13c.2-.36.43-.73.68-1.09.37-.48.76-.88,1.17-1.23.37-.28.78-.53,1.25-.77,0,0,0,0,.01,0h0Z"/>
          <path class="cls-9" d="M555.92,293.1c.29.02.59.07.9.15.28.07.57.17.93.33.24.11.49.26.75.46.03.03.07.06.11.09v.02c.18.16.34.33.49.52.17.21.32.44.44.72.08.18.14.37.18.56.16.38.25.81.29,1.29.04.45,0,.95-.12,1.49-.04.16-.09.32-.14.47l-.03.11c-.08.33-.2.65-.37.95-.12.22-.29.45-.51.7-.1.11-.21.21-.33.31-.62.52-1.43.88-2.39,1.07-.36.07-.72.1-1.07.11-.53,0-1.06-.05-1.56-.18-.65-.17-1.24-.5-1.71-.95.01,0,.02,0,.03,0-.12-.12-.24-.24-.34-.37-.5-.62-.82-1.39-.94-2.24-.18-1.16.03-2.34.55-3.3.05-.09.1-.17.16-.26.62-.92,1.68-1.62,2.93-1.91.38-.09.78-.14,1.19-.14.19,0,.38,0,.57.02h0Z"/>
          <path class="cls-4" d="M566.9,292.82s-1.54,1.73-2.52,1.8c1.13-.81,1.07-2.8,1.07-2.8-1.22,1.51-2.84,1.92-3.19,1.97,0,0,0,0,0,0,1.26-1.03,1.45-2.54,1.45-2.54-1.39,1.66-2.18,1.86-3.01,2.17-.93-.23-1.4-.41-1.86-.49-.04,0-.07-.01-.11-.02-.16-.03-.26-.04-.26-.04,0,0,0,0,0,0-.28-.05-.57-.1-.85-.13-.62-.07-1.25-.09-1.87-.08-.19,0-.37,0-.56.02-.83.04-1.65.14-2.46.3-.69.14-1.38.32-2.03.58-.34.14-.69.29-1.01.47-.45.25-.86.55-1.26.88-.5.41-.94.87-1.32,1.4-.16.23-.31.46-.43.72-.07.15-.14.31-.19.47-.04.13-.08.26-.13.38-.05.15-.03.34.02.5,0,.24,0,.48.03.72.04.31.12.6.28.88.29.49.71.87,1.18,1.18.51.33,1.08.57,1.66.75.58.18,1.17.32,1.77.42.76.13,1.52.21,2.29.26.63.04,1.26.06,1.89.04.49-.01.97-.07,1.45-.15.64-.12,1.27-.28,1.89-.48.73-.23,1.44-.51,2.12-.86.65-.33,1.26-.73,1.83-1.19,2.85-2.33,4.12-7.12,4.12-7.12ZM547.69,298.81s0,0,.01-.01c0,0,0,0,0,0,.1-.09.18-.18.25-.29l.05-.13c.2-.36.43-.72.68-1.09.37-.48.75-.88,1.17-1.23.37-.28.78-.53,1.25-.76,0,0,0,0,.01,0h0s0,.01-.01.02c.05-.02.1-.05.14-.07,1.17-.51,2.42-.83,3.68-1.03.02,0,.05,0,.07-.01,1.19-.16,2.4-.2,3.58-.08v-.02s0,0,0,0h.16c.89.14,1.6.32,2.24.58.45.2.85.42,1.21.68.25.2.47.41.67.64.18.23.32.47.44.72.07.16.12.3.17.44,0,0,.02.08.02.09h0s0,0,0,0l.02.08c.02.14.02.27,0,.41-.03.18-.07.33-.12.47-.07.16-.17.33-.28.5-.18.23-.39.44-.64.64-.47.37-1.04.7-1.77,1.03-.61.27-1.3.51-2.03.73,0-.01.01-.02.02-.02-.12.04-.24.07-.36.1-.61.17-1.22.31-1.85.41-.44.06-.88.08-1.33.08-.63,0-1.25-.05-1.88-.12-.63-.08-1.26-.19-1.87-.35-.47-.11-.92-.25-1.37-.43-.52-.22-.97-.47-1.36-.75-.22-.18-.41-.36-.59-.57-.15-.2-.27-.41-.4-.67Z"/>
        </g>
        <path class="cls-2" d="M558.64,298.6c.13.24.45.34.69.21.25-.14.5-.28.77-.4.13-.06.25-.13.37-.21.08-.06.17-.12.25-.18.07-.08.13-.16.2-.24.06-.1.1-.21.1-.33,0-.17-.06-.33-.17-.45-.08-.08-.18-.14-.29-.18-.15-.04-.36-.04-.49.05-.08.06-.17.12-.25.18-.07.07-.14.14-.2.21-.15.17-.31.33-.48.48-.09.06-.19.12-.29.18-.12.07-.21.18-.25.31-.04.12-.03.26.04.38h0Z"/>
      </g>
    </g>
  </g>
</svg>